{"accessors" : [{"bufferView" : 0, "byteOffset" : 0, "componentType" : 5123, "count" : 17580, "type" : "SCALAR", "max" : [14734], "min" : [0]}, {"bufferView" : 1, "byteOffset" : 0, "componentType" : 5126, "count" : 14735, "type" : "VEC3", "max" : [51.6349983215332, 53, 13], "min" : [-52.57160186767578, -53, -19], "name" : "POSITION"}, {"bufferView" : 1, "byteOffset" : 12, "componentType" : 5126, "count" : 14735, "type" : "VEC3", "max" : [0.9998732209205627, 0.9998074173927307, 1.0000044107437134], "min" : [-1.0000044107437134, -1.0000044107437134, -0.9858911037445068], "name" : "NORMAL"}, {"bufferView" : 0, "byteOffset" : 35160, "componentType" : 5123, "count" : 12903, "type" : "SCALAR", "max" : [11005], "min" : [0]}, {"bufferView" : 2, "byteOffset" : 0, "componentType" : 5126, "count" : 11006, "type" : "VEC3", "max" : [51.361900329589844, 52.972999572753906, -1.0849100351333618], "min" : [-51.362701416015625, -52.97330093383789, -103.5], "name" : "POSITION"}, {"bufferView" : 2, "byteOffset" : 12, "componentType" : 5126, "count" : 11006, "type" : "VEC3", "max" : [1.0000044107437134, 1.0000041723251343, 0.9996632933616638], "min" : [-1.0000044107437134, -0.9998520016670227, -1.0000044107437134], "name" : "NORMAL"}, {"bufferView" : 0, "byteOffset" : 60968, "componentType" : 5123, "count" : 1302, "type" : "SCALAR", "max" : [1120], "min" : [0]}, {"bufferView" : 3, "byteOffset" : 0, "componentType" : 5126, "count" : 1121, "type" : "VEC3", "max" : [40.68519973754883, 52.87049865722656, -6.475180149078369], "min" : [-40.68199920654297, 27.5, -44.95000076293945], "name" : "POSITION"}, {"bufferView" : 3, "byteOffset" : 12, "componentType" : 5126, "count" : 1121, "type" : "VEC3", "max" : [0.9788210988044739, 0.9999871253967285, 0.5202623009681702], "min" : [-0.9792616367340088, 0.03762711584568024, -0.9934811592102051], "name" : "NORMAL"}, {"bufferView" : 0, "byteOffset" : 63572, "componentType" : 5123, "count" : 234, "type" : "SCALAR", "max" : [206], "min" : [0]}, {"bufferView" : 4, "byteOffset" : 0, "componentType" : 5126, "count" : 207, "type" : "VEC3", "max" : [37.694698333740234, 37.694698333740234, -91], "min" : [-37.694698333740234, -37.694698333740234, -91], "name" : "POSITION"}, {"bufferView" : 4, "byteOffset" : 12, "componentType" : 5126, "count" : 207, "type" : "VEC3", "max" : [0.32953131198883057, 0.5309511423110962, 1.0000044107437134], "min" : [-0.32953131198883057, -0.5309511423110962, 0.8395815491676331], "name" : "NORMAL"}, {"bufferView" : 0, "byteOffset" : 64040, "componentType" : 5123, "count" : 192, "type" : "SCALAR", "max" : [168], "min" : [0]}, {"bufferView" : 5, "byteOffset" : 0, "componentType" : 5126, "count" : 169, "type" : "VEC3", "max" : [34.919898986816406, 34.919898986816406, -45], "min" : [-34.919898986816406, -34.919898986816406, -91], "name" : "POSITION"}, {"bufferView" : 5, "byteOffset" : 12, "componentType" : 5126, "count" : 169, "type" : "VEC3", "max" : [0.9958544373512268, 0.9953974485397339, -0.06954600661993027], "min" : [-0.9958544373512268, -0.9953974485397339, -0.10036849230527878], "name" : "NORMAL"}, {"bufferView" : 0, "byteOffset" : 64424, "componentType" : 5123, "count" : 5934, "type" : "SCALAR", "max" : [5323], "min" : [0]}, {"bufferView" : 6, "byteOffset" : 0, "componentType" : 5126, "count" : 5324, "type" : "VEC3", "max" : [36.700401306152344, -53, 5.341010093688965], "min" : [-28, -72.70040130615234, -11.340999603271484], "name" : "POSITION"}, {"bufferView" : 6, "byteOffset" : 12, "componentType" : 5126, "count" : 5324, "type" : "VEC3", "max" : [1.0000044107437134, 1.0000044107437134, 1.0000044107437134], "min" : [-1.0000044107437134, -1.0000044107437134, -1.0000044107437134], "name" : "NORMAL"}, {"bufferView" : 0, "byteOffset" : 76292, "componentType" : 5123, "count" : 1440, "type" : "SCALAR", "max" : [1394], "min" : [0]}, {"bufferView" : 7, "byteOffset" : 0, "componentType" : 5126, "count" : 1395, "type" : "VEC3", "max" : [38.79999923706055, 43.79999923706055, 12.5], "min" : [-38.79999923706055, -23.799999237060547, 5.5], "name" : "POSITION"}, {"bufferView" : 7, "byteOffset" : 12, "componentType" : 5126, "count" : 1395, "type" : "VEC3", "max" : [0.9978134036064148, 0.9978134036064148, 1.0000044107437134], "min" : [-0.9978134036064148, -0.9978134036064148, -1.0000044107437134], "name" : "NORMAL"}, {"bufferView" : 0, "byteOffset" : 79172, "componentType" : 5123, "count" : 1563, "type" : "SCALAR", "max" : [1533], "min" : [0]}, {"bufferView" : 8, "byteOffset" : 0, "componentType" : 5126, "count" : 1534, "type" : "VEC3", "max" : [45, 46.99190139770508, 13], "min" : [-44.5, -26.991899490356445, 4], "name" : "POSITION"}, {"bufferView" : 8, "byteOffset" : 12, "componentType" : 5126, "count" : 1534, "type" : "VEC3", "max" : [0.9983693361282349, 0.9978692531585693, 1.0000044107437134], "min" : [-0.9979918599128723, -0.9980443120002747, -0.0015201967908069491], "name" : "NORMAL"}], "asset" : {"generator" : "Aspose.3D 22.5.1", "version" : "2.0"}, "buffers" : [{"uri" : "data:application/octet-stream;base64,", "byteLength" : 1069888}], "bufferViews" : [{"buffer" : 0, "byteOffset" : 0, "byteLength" : 82300, "target" : 34963}, {"buffer" : 0, "byteOffset" : 82304, "byteLength" : 421920, "byteStride" : 24, "target" : 34962}, {"buffer" : 0, "byteOffset" : 504228, "byteLength" : 309672, "byteStride" : 24, "target" : 34962}, {"buffer" : 0, "byteOffset" : 813904, "byteLength" : 31248, "byteStride" : 24, "target" : 34962}, {"buffer" : 0, "byteOffset" : 845156, "byteLength" : 5616, "byteStride" : 24, "target" : 34962}, {"buffer" : 0, "byteOffset" : 850776, "byteLength" : 4608, "byteStride" : 24, "target" : 34962}, {"buffer" : 0, "byteOffset" : 855388, "byteLength" : 142416, "byteStride" : 24, "target" : 34962}, {"buffer" : 0, "byteOffset" : 997808, "byteLength" : 34560, "byteStride" : 24, "target" : 34962}, {"buffer" : 0, "byteOffset" : 1032372, "byteLength" : 37512, "byteStride" : 24, "target" : 34962}], "materials" : [{"name" : "Nr10002838_0Mat5504929", "pbrMetallicRoughness" : {"baseColorFactor" : [0.32549, 1, 0.631373, 1], "metallicFactor" : 0, "roughnessFactor" : 0}, "emissiveFactor" : [0, 0, 0], "alphaMode" : "OPAQUE", "doubleSided" : false}, {"name" : "Nr10002838_0Col1579032", "pbrMetallicRoughness" : {"baseColorFactor" : [0.0941176, 0.0941176, 0.0941176, 1], "metallicFactor" : 0, "roughnessFactor" : 0}, "emissiveFactor" : [0, 0, 0], "alphaMode" : "OPAQUE", "doubleSided" : false}, {"name" : "Nr10002838_0Col16777204", "pbrMetallicRoughness" : {"baseColorFactor" : [1, 1, 0.956863, 1], "metallicFactor" : 0, "roughnessFactor" : 0}, "emissiveFactor" : [0, 0, 0], "alphaMode" : "OPAQUE", "doubleSided" : false}, {"name" : "Nr10002838_0Col9211020", "pbrMetallicRoughness" : {"baseColorFactor" : [0.54902, 0.54902, 0.54902, 1], "metallicFactor" : 0, "roughnessFactor" : 0}, "emissiveFactor" : [0, 0, 0], "alphaMode" : "OPAQUE", "doubleSided" : false}, {"name" : "Nr10002838_0Col9444653", "pbrMetallicRoughness" : {"baseColorFactor" : [0.564706, 0.113725, 0.176471, 1], "metallicFactor" : 0, "roughnessFactor" : 0}, "emissiveFactor" : [0, 0, 0], "alphaMode" : "OPAQUE", "doubleSided" : false}, {"name" : "Nr10002838_0Col11513775", "pbrMetallicRoughness" : {"baseColorFactor" : [0.686275, 0.686275, 0.686275, 1], "metallicFactor" : 0, "roughnessFactor" : 0}, "emissiveFactor" : [0, 0, 0], "alphaMode" : "OPAQUE", "doubleSided" : false}, {"name" : "Nr10002838_0Col8158332", "pbrMetallicRoughness" : {"baseColorFactor" : [0.486275, 0.486275, 0.486275, 1], "metallicFactor" : 0, "roughnessFactor" : 0}, "emissiveFactor" : [0, 0, 0], "alphaMode" : "OPAQUE", "doubleSided" : false}, {"name" : "Nr10002838_0Col10790052", "pbrMetallicRoughness" : {"baseColorFactor" : [0.643137, 0.643137, 0.643137, 1], "metallicFactor" : 0, "roughnessFactor" : 0}, "emissiveFactor" : [0, 0, 0], "alphaMode" : "OPAQUE", "doubleSided" : false}], "meshes" : [{"primitives" : [{"attributes" : {"POSITION" : 1, "NORMAL" : 2}, "indices" : 0, "material" : 0, "mode" : 4}, {"attributes" : {"POSITION" : 4, "NORMAL" : 5}, "indices" : 3, "material" : 1, "mode" : 4}, {"attributes" : {"POSITION" : 7, "NORMAL" : 8}, "indices" : 6, "material" : 2, "mode" : 4}, {"attributes" : {"POSITION" : 10, "NORMAL" : 11}, "indices" : 9, "material" : 3, "mode" : 4}, {"attributes" : {"POSITION" : 13, "NORMAL" : 14}, "indices" : 12, "material" : 4, "mode" : 4}, {"attributes" : {"POSITION" : 16, "NORMAL" : 17}, "indices" : 15, "material" : 5, "mode" : 4}, {"attributes" : {"POSITION" : 19, "NORMAL" : 20}, "indices" : 18, "material" : 6, "mode" : 4}, {"attributes" : {"POSITION" : 22, "NORMAL" : 23}, "indices" : 21, "material" : 7, "mode" : 4}], "name" : ""}], "nodes" : [{"mesh" : 0, "name" : "_2-D_LiDAR_Sensor10002838_0"}], "scene" : 0, "scenes" : [{"nodes" : [0]}]}