{"accessors" : [{"bufferView" : 0, "byteOffset" : 0, "componentType" : 5123, "count" : 32286, "type" : "SCALAR", "max" : [29501], "min" : [0]}, {"bufferView" : 1, "byteOffset" : 0, "componentType" : 5126, "count" : 29502, "type" : "VEC3", "max" : [46.29999923706055, -23.700000762939453, 8.21366024017334], "min" : [34.5, -38.70000076293945, -28.213699340820312], "name" : "POSITION"}, {"bufferView" : 1, "byteOffset" : 12, "componentType" : 5126, "count" : 29502, "type" : "VEC3", "max" : [1.0000044107437134, 1.0000044107437134, 1.0000044107437134], "min" : [-1.0000044107437134, -1.0000044107437134, -1.0000044107437134], "name" : "NORMAL"}, {"bufferView" : 0, "byteOffset" : 64572, "componentType" : 5123, "count" : 32070, "type" : "SCALAR", "max" : [29170], "min" : [0]}, {"bufferView" : 2, "byteOffset" : 0, "componentType" : 5126, "count" : 29171, "type" : "VEC3", "max" : [48.099998474121094, 6, 45.000099182128906], "min" : [-34.827598571777344, -43.70000076293945, -35.000301361083984], "name" : "POSITION"}, {"bufferView" : 2, "byteOffset" : 12, "componentType" : 5126, "count" : 29171, "type" : "VEC3", "max" : [1.0000044107437134, 1.0000044107437134, 1.0000044107437134], "min" : [-0.9998520612716675, -1.0000044107437134, -1.0000044107437134], "name" : "NORMAL"}], "asset" : {"generator" : "Aspose.3D 22.5.1", "version" : "2.0"}, "buffers" : [{"uri" : "data:application/octet-stream;base64,", "byteLength" : 1673268}], "bufferViews" : [{"buffer" : 0, "byteOffset" : 0, "byteLength" : 128712, "target" : 34963}, {"buffer" : 0, "byteOffset" : 128716, "byteLength" : 774864, "byteStride" : 24, "target" : 34962}, {"buffer" : 0, "byteOffset" : 903584, "byteLength" : 769680, "byteStride" : 24, "target" : 34962}], "materials" : [{"name" : "Nr10001293_0Mat11779009", "pbrMetallicRoughness" : {"baseColorFactor" : [0.701961, 0.733333, 0.756863, 1], "metallicFactor" : 0, "roughnessFactor" : 0}, "emissiveFactor" : [0, 0, 0], "alphaMode" : "OPAQUE", "doubleSided" : false}, {"name" : "Nr10001293_0Col42375", "pbrMetallicRoughness" : {"baseColorFactor" : [0, 0.647059, 0.529412, 1], "metallicFactor" : 0, "roughnessFactor" : 0}, "emissiveFactor" : [0, 0, 0], "alphaMode" : "OPAQUE", "doubleSided" : false}], "meshes" : [{"primitives" : [{"attributes" : {"POSITION" : 1, "NORMAL" : 2}, "indices" : 0, "material" : 0, "mode" : 4}, {"attributes" : {"POSITION" : 4, "NORMAL" : 5}, "indices" : 3, "material" : 1, "mode" : 4}], "name" : ""}], "nodes" : [{"mesh" : 0, "name" : "_Optical_reading_10001293_0"}], "scene" : 0, "scenes" : [{"nodes" : [0]}]}