{"accessors" : [{"bufferView" : 0, "byteOffset" : 0, "componentType" : 5123, "count" : 10938, "type" : "SCALAR", "max" : [9722], "min" : [0]}, {"bufferView" : 1, "byteOffset" : 0, "componentType" : 5126, "count" : 9723, "type" : "VEC3", "max" : [32.5, 32.5, 0], "min" : [-32.5, -32.5, -38.5], "name" : "POSITION"}, {"bufferView" : 1, "byteOffset" : 12, "componentType" : 5126, "count" : 9723, "type" : "VEC3", "max" : [1.0000044107437134, 1.0000044107437134, 1.0000044107437134], "min" : [-1.0000044107437134, -1.0000044107437134, -1.0000044107437134], "name" : "NORMAL"}, {"bufferView" : 0, "byteOffset" : 21876, "componentType" : 5123, "count" : 2538, "type" : "SCALAR", "max" : [2245], "min" : [0]}, {"bufferView" : 2, "byteOffset" : 0, "componentType" : 5126, "count" : 2246, "type" : "VEC3", "max" : [4.8014302253723145, 30.39620018005371, -22.5], "min" : [-4.8014302253723145, -30.39620018005371, -38.5], "name" : "POSITION"}, {"bufferView" : 2, "byteOffset" : 12, "componentType" : 5126, "count" : 2246, "type" : "VEC3", "max" : [1.0000044107437134, 1.0000044107437134, 1.0000044107437134], "min" : [-1.0000044107437134, -1.0000044107437134, -1.0000044107437134], "name" : "NORMAL"}, {"bufferView" : 0, "byteOffset" : 26952, "componentType" : 5123, "count" : 2550, "type" : "SCALAR", "max" : [2257], "min" : [0]}, {"bufferView" : 3, "byteOffset" : 0, "componentType" : 5126, "count" : 2258, "type" : "VEC3", "max" : [30.39620018005371, 4.8014302253723145, -22.5], "min" : [-30.39620018005371, -4.8014302253723145, -38.5], "name" : "POSITION"}, {"bufferView" : 3, "byteOffset" : 12, "componentType" : 5126, "count" : 2258, "type" : "VEC3", "max" : [1.0000044107437134, 1.0000044107437134, 1.0000044107437134], "min" : [-1.0000044107437134, -1.0000044107437134, -1.0000044107437134], "name" : "NORMAL"}, {"bufferView" : 0, "byteOffset" : 32052, "componentType" : 5123, "count" : 828, "type" : "SCALAR", "max" : [795], "min" : [0]}, {"bufferView" : 4, "byteOffset" : 0, "componentType" : 5126, "count" : 796, "type" : "VEC3", "max" : [5.949999809265137, 32.082298278808594, -1.5499999523162842], "min" : [-5.949999809265137, 25.950700759887695, -13.449999809265137], "name" : "POSITION"}, {"bufferView" : 4, "byteOffset" : 12, "componentType" : 5126, "count" : 796, "type" : "VEC3", "max" : [1.0000044107437134, 0.9937626123428345, 1.0000044107437134], "min" : [-1.0000044107437134, -1.0000044107437134, -1.0000044107437134], "name" : "NORMAL"}, {"bufferView" : 0, "byteOffset" : 33708, "componentType" : 5123, "count" : 828, "type" : "SCALAR", "max" : [795], "min" : [0]}, {"bufferView" : 5, "byteOffset" : 0, "componentType" : 5126, "count" : 796, "type" : "VEC3", "max" : [32.082298278808594, 5.949999809265137, -1.5499999523162842], "min" : [25.950700759887695, -5.949999809265137, -13.449999809265137], "name" : "POSITION"}, {"bufferView" : 5, "byteOffset" : 12, "componentType" : 5126, "count" : 796, "type" : "VEC3", "max" : [0.9937626123428345, 1.0000044107437134, 1.0000044107437134], "min" : [-1.0000044107437134, -1.0000044107437134, -1.0000044107437134], "name" : "NORMAL"}, {"bufferView" : 0, "byteOffset" : 35364, "componentType" : 5123, "count" : 828, "type" : "SCALAR", "max" : [789], "min" : [0]}, {"bufferView" : 6, "byteOffset" : 0, "componentType" : 5126, "count" : 790, "type" : "VEC3", "max" : [5.949999809265137, -25.950700759887695, -12.550000190734863], "min" : [-5.949999809265137, -32.082298278808594, -24.450000762939453], "name" : "POSITION"}, {"bufferView" : 6, "byteOffset" : 12, "componentType" : 5126, "count" : 790, "type" : "VEC3", "max" : [1.0000044107437134, 1.0000044107437134, 1.0000044107437134], "min" : [-1.0000044107437134, -0.9937626123428345, -1.0000044107437134], "name" : "NORMAL"}, {"bufferView" : 0, "byteOffset" : 37020, "componentType" : 5123, "count" : 828, "type" : "SCALAR", "max" : [795], "min" : [0]}, {"bufferView" : 7, "byteOffset" : 0, "componentType" : 5126, "count" : 796, "type" : "VEC3", "max" : [-25.950700759887695, 5.949999809265137, -1.5499999523162842], "min" : [-32.082298278808594, -5.949999809265137, -13.449999809265137], "name" : "POSITION"}, {"bufferView" : 7, "byteOffset" : 12, "componentType" : 5126, "count" : 796, "type" : "VEC3", "max" : [1.0000044107437134, 1.0000044107437134, 1.0000044107437134], "min" : [-0.9937626123428345, -1.0000044107437134, -1.0000044107437134], "name" : "NORMAL"}], "asset" : {"generator" : "Aspose.3D 22.7", "version" : "2.0"}, "buffers" : [{"uri" : "data:application/octet-stream;base64,", "byteLength" : 502820}], "bufferViews" : [{"buffer" : 0, "byteOffset" : 0, "byteLength" : 38676, "target" : 34963}, {"buffer" : 0, "byteOffset" : 38680, "byteLength" : 262512, "byteStride" : 24, "target" : 34962}, {"buffer" : 0, "byteOffset" : 301196, "byteLength" : 60912, "byteStride" : 24, "target" : 34962}, {"buffer" : 0, "byteOffset" : 362112, "byteLength" : 61200, "byteStride" : 24, "target" : 34962}, {"buffer" : 0, "byteOffset" : 423316, "byteLength" : 19872, "byteStride" : 24, "target" : 34962}, {"buffer" : 0, "byteOffset" : 443192, "byteLength" : 19872, "byteStride" : 24, "target" : 34962}, {"buffer" : 0, "byteOffset" : 463068, "byteLength" : 19872, "byteStride" : 24, "target" : 34962}, {"buffer" : 0, "byteOffset" : 482944, "byteLength" : 19872, "byteStride" : 24, "target" : 34962}], "materials" : [{"name" : "Nr10001381_0Mat1", "pbrMetallicRoughness" : {"baseColorFactor" : [0, 0.647059, 0.529412, 1], "metallicFactor" : 0, "roughnessFactor" : 0}, "emissiveFactor" : [0, 0, 0], "alphaMode" : "OPAQUE", "doubleSided" : false}, {"name" : "Nr10001381_0Mat2", "pbrMetallicRoughness" : {"baseColorFactor" : [0.701961, 0.733333, 0.756863, 1], "metallicFactor" : 0, "roughnessFactor" : 0}, "emissiveFactor" : [0, 0, 0], "alphaMode" : "OPAQUE", "doubleSided" : false}, {"name" : "Nr10001381_0Mat3", "pbrMetallicRoughness" : {"baseColorFactor" : [0.694118, 0.741176, 0.788235, 1], "metallicFactor" : 0, "roughnessFactor" : 0}, "emissiveFactor" : [0, 0, 0], "alphaMode" : "OPAQUE", "doubleSided" : false}, {"name" : "Nr10001382_0Mat1", "pbrMetallicRoughness" : {"baseColorFactor" : [0, 0.647059, 0.529412, 1], "metallicFactor" : 0, "roughnessFactor" : 0}, "emissiveFactor" : [0, 0, 0], "alphaMode" : "OPAQUE", "doubleSided" : false}, {"name" : "Nr10001383_0Mat1", "pbrMetallicRoughness" : {"baseColorFactor" : [0, 0.647059, 0.529412, 1], "metallicFactor" : 0, "roughnessFactor" : 0}, "emissiveFactor" : [0, 0, 0], "alphaMode" : "OPAQUE", "doubleSided" : false}, {"name" : "Nr10001384_0Mat1", "pbrMetallicRoughness" : {"baseColorFactor" : [0, 0.647059, 0.529412, 1], "metallicFactor" : 0, "roughnessFactor" : 0}, "emissiveFactor" : [0, 0, 0], "alphaMode" : "OPAQUE", "doubleSided" : false}, {"name" : "Nr10001385_0Mat1", "pbrMetallicRoughness" : {"baseColorFactor" : [0, 0.647059, 0.529412, 1], "metallicFactor" : 0, "roughnessFactor" : 0}, "emissiveFactor" : [0, 0, 0], "alphaMode" : "OPAQUE", "doubleSided" : false}], "meshes" : [{"primitives" : [{"attributes" : {"POSITION" : 1, "NORMAL" : 2}, "indices" : 0, "material" : 0, "mode" : 4}, {"attributes" : {"POSITION" : 4, "NORMAL" : 5}, "indices" : 3, "material" : 1, "mode" : 4}, {"attributes" : {"POSITION" : 7, "NORMAL" : 8}, "indices" : 6, "material" : 2, "mode" : 4}], "name" : ""}, {"primitives" : [{"attributes" : {"POSITION" : 10, "NORMAL" : 11}, "indices" : 9, "material" : 3, "mode" : 4}], "name" : ""}, {"primitives" : [{"attributes" : {"POSITION" : 13, "NORMAL" : 14}, "indices" : 12, "material" : 4, "mode" : 4}], "name" : ""}, {"primitives" : [{"attributes" : {"POSITION" : 16, "NORMAL" : 17}, "indices" : 15, "material" : 5, "mode" : 4}], "name" : ""}, {"primitives" : [{"attributes" : {"POSITION" : 19, "NORMAL" : 20}, "indices" : 18, "material" : 6, "mode" : 4}], "name" : ""}], "nodes" : [{"mesh" : 0, "name" : "_Activator_BT65A_10001381_0"}, {"mesh" : 1, "name" : "_Activator_BT65A_10001382_0"}, {"mesh" : 2, "name" : "_Activator_BT65A_10001383_0"}, {"mesh" : 3, "name" : "_Activator_BT65A_10001384_0"}, {"mesh" : 4, "name" : "_Activator_BT65A_10001385_0"}], "scene" : 0, "scenes" : [{"nodes" : [0, 1, 2, 3, 4]}]}