{"accessors" : [{"bufferView" : 0, "byteOffset" : 0, "componentType" : 5123, "count" : 24, "type" : "SCALAR", "max" : [23], "min" : [0]}, {"bufferView" : 1, "byteOffset" : 0, "componentType" : 5126, "count" : 24, "type" : "VEC3", "max" : [-42.849998474121094, -29.85409927368164, -21.899999618530273], "min" : [-63.650001525878906, -30, -22.93779945373535], "name" : "POSITION"}, {"bufferView" : 1, "byteOffset" : 12, "componentType" : 5126, "count" : 24, "type" : "VEC3", "max" : [1.0000044107437134, 0.9902723431587219, 1.0000044107437134], "min" : [-1.0000044107437134, -1.0000044107437134, -0.13917361199855804], "name" : "NORMAL"}, {"bufferView" : 0, "byteOffset" : 48, "componentType" : 5123, "count" : 24, "type" : "SCALAR", "max" : [23], "min" : [0]}, {"bufferView" : 2, "byteOffset" : 0, "componentType" : 5126, "count" : 24, "type" : "VEC3", "max" : [-42.849998474121094, 30, -21.899999618530273], "min" : [-63.650001525878906, 29.85409927368164, -22.93779945373535], "name" : "POSITION"}, {"bufferView" : 2, "byteOffset" : 12, "componentType" : 5126, "count" : 24, "type" : "VEC3", "max" : [1.0000044107437134, 1.0000044107437134, 1.0000044107437134], "min" : [-1.0000044107437134, -0.9902723431587219, -0.13917361199855804], "name" : "NORMAL"}, {"bufferView" : 0, "byteOffset" : 96, "componentType" : 5123, "count" : 50541, "type" : "SCALAR", "max" : [43601], "min" : [0]}, {"bufferView" : 3, "byteOffset" : 0, "componentType" : 5126, "count" : 43602, "type" : "VEC3", "max" : [74.00080108642578, 40.18330001831055, 12.5], "min" : [-136.25, -40.18330001831055, -24], "name" : "POSITION"}, {"bufferView" : 3, "byteOffset" : 12, "componentType" : 5126, "count" : 43602, "type" : "VEC3", "max" : [1.0000044107437134, 1.0000044107437134, 1.0000044107437134], "min" : [-1.0000044107437134, -1.0000044107437134, -1.0000044107437134], "name" : "NORMAL"}, {"bufferView" : 0, "byteOffset" : 101180, "componentType" : 5123, "count" : 3189, "type" : "SCALAR", "max" : [2849], "min" : [0]}, {"bufferView" : 4, "byteOffset" : 0, "componentType" : 5126, "count" : 2850, "type" : "VEC3", "max" : [34.315799713134766, 24.87030029296875, -23], "min" : [-31.19099998474121, -23.274700164794922, -23], "name" : "POSITION"}, {"bufferView" : 4, "byteOffset" : 12, "componentType" : 5126, "count" : 2850, "type" : "VEC3", "max" : [0, 0, -1.0000044107437134], "min" : [0, 0, -1.0000044107437134], "name" : "NORMAL"}, {"bufferView" : 0, "byteOffset" : 107560, "componentType" : 5123, "count" : 2820, "type" : "SCALAR", "max" : [2452], "min" : [0]}, {"bufferView" : 5, "byteOffset" : 0, "componentType" : 5126, "count" : 2453, "type" : "VEC3", "max" : [-39.79999923706055, 29.950000762939453, -18.899999618530273], "min" : [-63.70000076293945, -29.950000762939453, -23.5], "name" : "POSITION"}, {"bufferView" : 5, "byteOffset" : 12, "componentType" : 5126, "count" : 2453, "type" : "VEC3", "max" : [1.0000044107437134, 1.0000044107437134, 1.0000044107437134], "min" : [-1.0000044107437134, -1.0000044107437134, -1.0000044107437134], "name" : "NORMAL"}], "asset" : {"generator" : "Aspose.3D 22.7", "version" : "2.0"}, "buffers" : [{"uri" : "data:application/octet-stream;base64,", "byteLength" : 1471576}], "bufferViews" : [{"buffer" : 0, "byteOffset" : 0, "byteLength" : 113200, "target" : 34963}, {"buffer" : 0, "byteOffset" : 113204, "byteLength" : 576, "byteStride" : 24, "target" : 34962}, {"buffer" : 0, "byteOffset" : 113784, "byteLength" : 576, "byteStride" : 24, "target" : 34962}, {"buffer" : 0, "byteOffset" : 114364, "byteLength" : 1212984, "byteStride" : 24, "target" : 34962}, {"buffer" : 0, "byteOffset" : 1327352, "byteLength" : 76536, "byteStride" : 24, "target" : 34962}, {"buffer" : 0, "byteOffset" : 1403892, "byteLength" : 67680, "byteStride" : 24, "target" : 34962}], "materials" : [{"name" : "Nr10000943_0Mat1", "pbrMetallicRoughness" : {"baseColorFactor" : [0, 0.647059, 0.529412, 1], "metallicFactor" : 0, "roughnessFactor" : 0}, "emissiveFactor" : [0, 0, 0], "alphaMode" : "OPAQUE", "doubleSided" : false}, {"name" : "Nr10000944_0Mat1", "pbrMetallicRoughness" : {"baseColorFactor" : [0, 0.647059, 0.529412, 1], "metallicFactor" : 0, "roughnessFactor" : 0}, "emissiveFactor" : [0, 0, 0], "alphaMode" : "OPAQUE", "doubleSided" : false}, {"name" : "Nr10000945_0Mat1", "pbrMetallicRoughness" : {"baseColorFactor" : [0, 0.647059, 0.529412, 1], "metallicFactor" : 0, "roughnessFactor" : 0}, "emissiveFactor" : [0, 0, 0], "alphaMode" : "OPAQUE", "doubleSided" : false}, {"name" : "Nr10000945_0Mat2", "pbrMetallicRoughness" : {"baseColorFactor" : [0.701961, 0.733333, 0.756863, 1], "metallicFactor" : 0, "roughnessFactor" : 0}, "emissiveFactor" : [0, 0, 0], "alphaMode" : "OPAQUE", "doubleSided" : false}, {"name" : "Nr10000946_0Mat1", "pbrMetallicRoughness" : {"baseColorFactor" : [0.701961, 0.733333, 0.756863, 1], "metallicFactor" : 0, "roughnessFactor" : 0}, "emissiveFactor" : [0, 0, 0], "alphaMode" : "OPAQUE", "doubleSided" : false}], "meshes" : [{"primitives" : [{"attributes" : {"POSITION" : 1, "NORMAL" : 2}, "indices" : 0, "material" : 0, "mode" : 4}], "name" : ""}, {"primitives" : [{"attributes" : {"POSITION" : 4, "NORMAL" : 5}, "indices" : 3, "material" : 1, "mode" : 4}], "name" : ""}, {"primitives" : [{"attributes" : {"POSITION" : 7, "NORMAL" : 8}, "indices" : 6, "material" : 2, "mode" : 4}, {"attributes" : {"POSITION" : 10, "NORMAL" : 11}, "indices" : 9, "material" : 3, "mode" : 4}], "name" : ""}, {"primitives" : [{"attributes" : {"POSITION" : 13, "NORMAL" : 14}, "indices" : 12, "material" : 4, "mode" : 4}], "name" : ""}], "nodes" : [{"mesh" : 0, "name" : "_AS-Interface_Han10000943_0"}, {"mesh" : 1, "name" : "_AS-Interface_Han10000944_0"}, {"mesh" : 2, "name" : "_AS-Interface_Han10000945_0"}, {"mesh" : 3, "name" : "_AS-Interface_Han10000946_0"}], "scene" : 0, "scenes" : [{"nodes" : [0, 1, 2, 3]}]}