{"accessors" : [{"bufferView" : 0, "byteOffset" : 0, "componentType" : 5123, "count" : 1017, "type" : "SCALAR", "max" : [816], "min" : [0]}, {"bufferView" : 1, "byteOffset" : 0, "componentType" : 5126, "count" : 817, "type" : "VEC3", "max" : [46.70000076293945, 29.299999237060547, 29.5], "min" : [-15.899999618530273, -29.299999237060547, -29.299999237060547], "name" : "POSITION"}, {"bufferView" : 1, "byteOffset" : 12, "componentType" : 5126, "count" : 817, "type" : "VEC3", "max" : [1.0000044107437134, 1.0000042915344238, 1.0000044107437134], "min" : [-1.0000044107437134, -1.0000042915344238, -1.0000042915344238], "name" : "NORMAL"}, {"bufferView" : 0, "byteOffset" : 2036, "componentType" : 5123, "count" : 10869, "type" : "SCALAR", "max" : [8699], "min" : [0]}, {"bufferView" : 2, "byteOffset" : 0, "componentType" : 5126, "count" : 8700, "type" : "VEC3", "max" : [7, 35.785499572753906, 29.25], "min" : [-24.899999618530273, -35.785499572753906, -29.25], "name" : "POSITION"}, {"bufferView" : 2, "byteOffset" : 12, "componentType" : 5126, "count" : 8700, "type" : "VEC3", "max" : [1.000004529953003, 1.000004529953003, 1.000004529953003], "min" : [-1.000004529953003, -1.000004529953003, -1.000004529953003], "name" : "NORMAL"}, {"bufferView" : 0, "byteOffset" : 23776, "componentType" : 5123, "count" : 3360, "type" : "SCALAR", "max" : [2712], "min" : [0]}, {"bufferView" : 3, "byteOffset" : 0, "componentType" : 5126, "count" : 2713, "type" : "VEC3", "max" : [33.70000076293945, 8, 52.500301361083984], "min" : [17.700000762939453, -8, 29.5], "name" : "POSITION"}, {"bufferView" : 3, "byteOffset" : 12, "componentType" : 5126, "count" : 2713, "type" : "VEC3", "max" : [1.000004529953003, 1.000004529953003, 1.0000044107437134], "min" : [-1.000004529953003, -1.000004529953003, -1.0000044107437134], "name" : "NORMAL"}], "asset" : {"generator" : "Aspose.3D 22.5.1", "version" : "2.0"}, "buffers" : [{"uri" : "data:application/octet-stream;base64,", "byteLength" : 396416}], "bufferViews" : [{"buffer" : 0, "byteOffset" : 0, "byteLength" : 30496, "target" : 34963}, {"buffer" : 0, "byteOffset" : 30500, "byteLength" : 24408, "byteStride" : 24, "target" : 34962}, {"buffer" : 0, "byteOffset" : 54912, "byteLength" : 260856, "byteStride" : 24, "target" : 34962}, {"buffer" : 0, "byteOffset" : 315772, "byteLength" : 80640, "byteStride" : 24, "target" : 34962}], "materials" : [{"name" : "Nr10003167_0Mat42375", "pbrMetallicRoughness" : {"baseColorFactor" : [0, 0.647059, 0.529412, 1], "metallicFactor" : 0, "roughnessFactor" : 0}, "emissiveFactor" : [0, 0, 0], "alphaMode" : "OPAQUE", "doubleSided" : false}, {"name" : "Nr10003167_0Col12566463", "pbrMetallicRoughness" : {"baseColorFactor" : [0.74902, 0.74902, 0.74902, 1], "metallicFactor" : 0, "roughnessFactor" : 0}, "emissiveFactor" : [0, 0, 0], "alphaMode" : "OPAQUE", "doubleSided" : false}, {"name" : "Nr10003170_0Mat11713217", "pbrMetallicRoughness" : {"baseColorFactor" : [0.698039, 0.729412, 0.756863, 1], "metallicFactor" : 0, "roughnessFactor" : 0}, "emissiveFactor" : [0, 0, 0], "alphaMode" : "OPAQUE", "doubleSided" : false}], "meshes" : [{"primitives" : [{"attributes" : {"POSITION" : 1, "NORMAL" : 2}, "indices" : 0, "material" : 0, "mode" : 4}, {"attributes" : {"POSITION" : 4, "NORMAL" : 5}, "indices" : 3, "material" : 1, "mode" : 4}], "name" : ""}, {"primitives" : [{"attributes" : {"POSITION" : 7, "NORMAL" : 8}, "indices" : 6, "material" : 2, "mode" : 4}], "name" : ""}], "nodes" : [{"matrix" : [1, 0, 0, 0, 0, 1, 0, 0, 0, 0, 1, 0, 0, 1, 0, 1], "mesh" : 1, "name" : "_ENA58IL-BD-310003170_0"}, {"children" : [0], "matrix" : [1, 0, 0, 0, 0, 1, 0, 0, 0, 0, 1, 0, 0, 1, 0, 1], "mesh" : 0, "name" : "_ENA58TL-R10DA71510003167_0"}], "scene" : 0, "scenes" : [{"nodes" : [1]}]}