{"accessors" : [{"bufferView" : 0, "byteOffset" : 0, "componentType" : 5123, "count" : 1488, "type" : "SCALAR", "max" : [1401], "min" : [0]}, {"bufferView" : 1, "byteOffset" : 0, "componentType" : 5126, "count" : 1402, "type" : "VEC3", "max" : [54.599998474121094, -12, -15.5], "min" : [-54.599998474121094, -21, -24.5], "name" : "POSITION"}, {"bufferView" : 1, "byteOffset" : 12, "componentType" : 5126, "count" : 1402, "type" : "VEC3", "max" : [1.0000044107437134, 1.0000042915344238, 1.0000044107437134], "min" : [-1.0000044107437134, -1.0000042915344238, -1.0000044107437134], "name" : "NORMAL"}, {"bufferView" : 0, "byteOffset" : 2976, "componentType" : 5123, "count" : 5481, "type" : "SCALAR", "max" : [5004], "min" : [0]}, {"bufferView" : 2, "byteOffset" : 0, "componentType" : 5126, "count" : 5005, "type" : "VEC3", "max" : [8, -54.915000915527344, -14], "min" : [-8, -68, -30], "name" : "POSITION"}, {"bufferView" : 2, "byteOffset" : 12, "componentType" : 5126, "count" : 5005, "type" : "VEC3", "max" : [0.9993465542793274, 0.9807067513465881, 0.9993465542793274], "min" : [-0.9993465542793274, -1.0000044107437134, -0.9993465542793274], "name" : "NORMAL"}, {"bufferView" : 0, "byteOffset" : 13940, "componentType" : 5123, "count" : 29739, "type" : "SCALAR", "max" : [25782], "min" : [0]}, {"bufferView" : 3, "byteOffset" : 0, "componentType" : 5126, "count" : 25783, "type" : "VEC3", "max" : [55.99980163574219, 57.07460021972656, 0.5000010132789612], "min" : [-55.99980163574219, -56.5, -35.667701721191406], "name" : "POSITION"}, {"bufferView" : 3, "byteOffset" : 12, "componentType" : 5126, "count" : 25783, "type" : "VEC3", "max" : [1.0000044107437134, 1.0000044107437134, 1.0000044107437134], "min" : [-1.0000044107437134, -1.0000044107437134, -1.0000044107437134], "name" : "NORMAL"}, {"bufferView" : 0, "byteOffset" : 73420, "componentType" : 5123, "count" : 33027, "type" : "SCALAR", "max" : [28641], "min" : [0]}, {"bufferView" : 4, "byteOffset" : 0, "componentType" : 5126, "count" : 28642, "type" : "VEC3", "max" : [49.98350143432617, 55, -15.300000190734863], "min" : [-49.98350143432617, -55, -62.79999923706055], "name" : "POSITION"}, {"bufferView" : 4, "byteOffset" : 12, "componentType" : 5126, "count" : 28642, "type" : "VEC3", "max" : [1.0000044107437134, 1.0000044107437134, 1.0000044107437134], "min" : [-1.0000044107437134, -0.9999665021896362, -0.9999549388885498], "name" : "NORMAL"}, {"bufferView" : 0, "byteOffset" : 139476, "componentType" : 5123, "count" : 1707, "type" : "SCALAR", "max" : [1472], "min" : [0]}, {"bufferView" : 5, "byteOffset" : 0, "componentType" : 5126, "count" : 1473, "type" : "VEC3", "max" : [23.500600814819336, -37.79999923706055, -54.79999923706055], "min" : [-23.500600814819336, -49.29999923706055, -62.29999923706055], "name" : "POSITION"}, {"bufferView" : 5, "byteOffset" : 12, "componentType" : 5126, "count" : 1473, "type" : "VEC3", "max" : [0.9980262517929077, 0.9993042945861816, 1.0000044107437134], "min" : [-0.9980261325836182, -0.9999817609786987, -1.0000044107437134], "name" : "NORMAL"}], "asset" : {"generator" : "Aspose.3D 22.7", "version" : "2.0"}, "buffers" : [{"uri" : "data:application/octet-stream;base64,", "byteLength" : 1857524}], "bufferViews" : [{"buffer" : 0, "byteOffset" : 0, "byteLength" : 142892, "target" : 34963}, {"buffer" : 0, "byteOffset" : 142896, "byteLength" : 35712, "byteStride" : 24, "target" : 34962}, {"buffer" : 0, "byteOffset" : 178612, "byteLength" : 131544, "byteStride" : 24, "target" : 34962}, {"buffer" : 0, "byteOffset" : 310160, "byteLength" : 713736, "byteStride" : 24, "target" : 34962}, {"buffer" : 0, "byteOffset" : 1023900, "byteLength" : 792648, "byteStride" : 24, "target" : 34962}, {"buffer" : 0, "byteOffset" : 1816552, "byteLength" : 40968, "byteStride" : 24, "target" : 34962}], "materials" : [{"name" : "Nr10000873_0Mat0", "pbrMetallicRoughness" : {"baseColorFactor" : [0, 0, 0, 1], "metallicFactor" : 0, "roughnessFactor" : 0}, "emissiveFactor" : [0, 0, 0], "alphaMode" : "OPAQUE", "doubleSided" : false}, {"name" : "Nr10000873_0Mat1", "pbrMetallicRoughness" : {"baseColorFactor" : [0.701961, 0.733333, 0.756863, 1], "metallicFactor" : 0, "roughnessFactor" : 0}, "emissiveFactor" : [0, 0, 0], "alphaMode" : "OPAQUE", "doubleSided" : false}, {"name" : "Nr10000873_0Mat2", "pbrMetallicRoughness" : {"baseColorFactor" : [0, 0.647059, 0.529412, 1], "metallicFactor" : 0, "roughnessFactor" : 0}, "emissiveFactor" : [0, 0, 0], "alphaMode" : "OPAQUE", "doubleSided" : false}, {"name" : "Nr10000874_0Mat1", "pbrMetallicRoughness" : {"baseColorFactor" : [0, 0.647059, 0.529412, 1], "metallicFactor" : 0, "roughnessFactor" : 0}, "emissiveFactor" : [0, 0, 0], "alphaMode" : "OPAQUE", "doubleSided" : false}, {"name" : "Nr10000874_0Mat2", "pbrMetallicRoughness" : {"baseColorFactor" : [0.701961, 0.733333, 0.756863, 1], "metallicFactor" : 0, "roughnessFactor" : 0}, "emissiveFactor" : [0, 0, 0], "alphaMode" : "OPAQUE", "doubleSided" : false}], "meshes" : [{"primitives" : [{"attributes" : {"POSITION" : 1, "NORMAL" : 2}, "indices" : 0, "material" : 0, "mode" : 4}, {"attributes" : {"POSITION" : 4, "NORMAL" : 5}, "indices" : 3, "material" : 1, "mode" : 4}, {"attributes" : {"POSITION" : 7, "NORMAL" : 8}, "indices" : 6, "material" : 2, "mode" : 4}], "name" : ""}, {"primitives" : [{"attributes" : {"POSITION" : 10, "NORMAL" : 11}, "indices" : 9, "material" : 3, "mode" : 4}, {"attributes" : {"POSITION" : 13, "NORMAL" : 14}, "indices" : 12, "material" : 4, "mode" : 4}], "name" : ""}], "nodes" : [{"mesh" : 0, "name" : "_Read_write_head_10000873_0"}, {"mesh" : 1, "name" : "_Read_write_head_10000874_0"}], "scene" : 0, "scenes" : [{"nodes" : [0, 1]}]}