{"accessors" : [{"bufferView" : 0, "byteOffset" : 0, "componentType" : 5123, "count" : 4359, "type" : "SCALAR", "max" : [4014], "min" : [0]}, {"bufferView" : 1, "byteOffset" : 0, "componentType" : 5126, "count" : 4015, "type" : "VEC3", "max" : [13.99470043182373, 46.43560028076172, 1.5], "min" : [-13.99470043182373, -43.49470138549805, -10.5], "name" : "POSITION"}, {"bufferView" : 1, "byteOffset" : 12, "componentType" : 5126, "count" : 4015, "type" : "VEC3", "max" : [1.0000044107437134, 1.0000044107437134, 1.0000044107437134], "min" : [-1.0000044107437134, -1.0000044107437134, -1.0000044107437134], "name" : "NORMAL"}, {"bufferView" : 0, "byteOffset" : 8720, "componentType" : 5123, "count" : 864, "type" : "SCALAR", "max" : [743], "min" : [0]}, {"bufferView" : 2, "byteOffset" : 0, "componentType" : 5126, "count" : 744, "type" : "VEC3", "max" : [12.600000381469727, -16.899999618530273, 0.5], "min" : [-12.600000381469727, -42.099998474121094, 0], "name" : "POSITION"}, {"bufferView" : 2, "byteOffset" : 12, "componentType" : 5126, "count" : 744, "type" : "VEC3", "max" : [0.9787223935127258, 0.978721559047699, 0.9999173283576965], "min" : [-0.9787223935127258, -0.9787240028381348, -1.0000044107437134], "name" : "NORMAL"}], "asset" : {"generator" : "Aspose.3D 22.7", "version" : "2.0"}, "buffers" : [{"uri" : "data:application/octet-stream;base64,", "byteLength" : 135812}], "bufferViews" : [{"buffer" : 0, "byteOffset" : 0, "byteLength" : 10448, "target" : 34963}, {"buffer" : 0, "byteOffset" : 10452, "byteLength" : 104616, "byteStride" : 24, "target" : 34962}, {"buffer" : 0, "byteOffset" : 115072, "byteLength" : 20736, "byteStride" : 24, "target" : 34962}], "materials" : [{"name" : "Nr10006412_0Mat1", "pbrMetallicRoughness" : {"baseColorFactor" : [0, 0.6, 0.4, 1], "metallicFactor" : 0, "roughnessFactor" : 0}, "emissiveFactor" : [0, 0, 0], "alphaMode" : "OPAQUE", "doubleSided" : false}, {"name" : "Nr10006413_0Mat1", "pbrMetallicRoughness" : {"baseColorFactor" : [0, 0.6, 0.4, 1], "metallicFactor" : 0, "roughnessFactor" : 0}, "emissiveFactor" : [0, 0, 0], "alphaMode" : "OPAQUE", "doubleSided" : false}], "meshes" : [{"primitives" : [{"attributes" : {"POSITION" : 1, "NORMAL" : 2}, "indices" : 0, "material" : 0, "mode" : 4}], "name" : ""}, {"primitives" : [{"attributes" : {"POSITION" : 4, "NORMAL" : 5}, "indices" : 3, "material" : 1, "mode" : 4}], "name" : ""}], "nodes" : [{"mesh" : 0, "name" : "_Read_write_stati10006412_0"}, {"mesh" : 1, "name" : "_Read_write_stati10006413_0"}], "scene" : 0, "scenes" : [{"nodes" : [0, 1]}]}