{
    "asset" : {
        "generator" : "Khronos glTF Blender I/O v1.6.16",
        "version" : "2.0"
    },
    "scene" : 0,
    "scenes" : [
        {
            "name" : "Scene",
            "nodes" : [
                0,
                1,
                2
            ]
        }
    ],
    "nodes" : [
        {
            "mesh" : 0,
            "name" : "_Read_write_stati10001864_0"
        },
        {
            "mesh" : 1,
            "name" : "_Read_write_stati10001865_0"
        },
        {
            "mesh" : 2,
            "name" : "_Read_write_stati10001866_0"
        }
    ],
    "materials" : [
        {
            "name" : "Nr10001864_0Mat1",
            "pbrMetallicRoughness" : {
                "baseColorFactor" : [
                    0.0159962996840477,
                    0.01599629409611225,
                    0.0159962959587574,
                    1
                ],
                "metallicFactor" : 0,
                "roughnessFactor" : 0.5
            }
        },
        {
            "name" : "Nr10001864_0Mat2",
            "pbrMetallicRoughness" : {
                "baseColorFactor" : [
                    0.7019609808921814,
                    0.7333329916000366,
                    0.756862998008728,
                    1
                ],
                "metallicFactor" : 0,
                "roughnessFactor" : 0
            }
        },
        {
            "name" : "Nr10001865_0Mat1",
            "pbrMetallicRoughness" : {
                "baseColorFactor" : [
                    0.0159962996840477,
                    0.01599629409611225,
                    0.0159962959587574,
                    1
                ],
                "metallicFactor" : 0,
                "roughnessFactor" : 0.5
            }
        },
        {
            "doubleSided" : true,
            "name" : "Material.006",
            "pbrMetallicRoughness" : {
                "baseColorFactor" : [
                    0.800000011920929,
                    0.800000011920929,
                    0.800000011920929,
                    1
                ],
                "metallicFactor" : 0,
                "roughnessFactor" : 0.5
            }
        },
        {
            "name" : "Nr10001866_0Mat1",
            "pbrMetallicRoughness" : {
                "baseColorFactor" : [
                    0.0159962996840477,
                    0.01599629409611225,
                    0.0159962959587574,
                    1
                ],
                "metallicFactor" : 0,
                "roughnessFactor" : 0
            }
        }
    ],
    "meshes" : [
        {
            "name" : "Mesh_0.003",
            "primitives" : [
                {
                    "attributes" : {
                        "POSITION" : 0,
                        "NORMAL" : 1
                    },
                    "indices" : 2,
                    "material" : 0
                },
                {
                    "attributes" : {
                        "POSITION" : 3,
                        "NORMAL" : 4
                    },
                    "indices" : 5,
                    "material" : 1
                }
            ]
        },
        {
            "name" : "Mesh_1.002",
            "primitives" : [
                {
                    "attributes" : {
                        "POSITION" : 6,
                        "NORMAL" : 7
                    },
                    "indices" : 8,
                    "material" : 2
                },
                {
                    "attributes" : {
                        "POSITION" : 9,
                        "NORMAL" : 10
                    },
                    "indices" : 11,
                    "material" : 3
                }
            ]
        },
        {
            "name" : "Mesh_2.002",
            "primitives" : [
                {
                    "attributes" : {
                        "POSITION" : 12,
                        "NORMAL" : 13
                    },
                    "indices" : 14,
                    "material" : 4
                }
            ]
        }
    ],
    "accessors" : [
        {
            "bufferView" : 0,
            "componentType" : 5126,
            "count" : 16705,
            "max" : [
                40.234798431396484,
                40.234798431396484,
                0.30000001192092896
            ],
            "min" : [
                -40.234798431396484,
                -64,
                -40
            ],
            "type" : "VEC3"
        },
        {
            "bufferView" : 1,
            "componentType" : 5126,
            "count" : 16705,
            "type" : "VEC3"
        },
        {
            "bufferView" : 2,
            "componentType" : 5123,
            "count" : 16794,
            "type" : "SCALAR"
        },
        {
            "bufferView" : 3,
            "componentType" : 5126,
            "count" : 17253,
            "max" : [
                38.75,
                38.75,
                -9.559889793395996
            ],
            "min" : [
                -38.75,
                -64.00070190429688,
                -39.099998474121094
            ],
            "type" : "VEC3"
        },
        {
            "bufferView" : 4,
            "componentType" : 5126,
            "count" : 17253,
            "type" : "VEC3"
        },
        {
            "bufferView" : 5,
            "componentType" : 5123,
            "count" : 17259,
            "type" : "SCALAR"
        },
        {
            "bufferView" : 6,
            "componentType" : 5126,
            "count" : 8736,
            "max" : [
                38.73189926147461,
                39.79999923706055,
                -16.988300323486328
            ],
            "min" : [
                -38.73189926147461,
                -38.698299407958984,
                -40
            ],
            "type" : "VEC3"
        },
        {
            "bufferView" : 7,
            "componentType" : 5126,
            "count" : 8736,
            "type" : "VEC3"
        },
        {
            "bufferView" : 8,
            "componentType" : 5123,
            "count" : 8757,
            "type" : "SCALAR"
        },
        {
            "bufferView" : 9,
            "componentType" : 5126,
            "count" : 69,
            "max" : [
                25.946500778198242,
                39.150001525878906,
                -17.936199188232422
            ],
            "min" : [
                13.053500175476074,
                28.164600372314453,
                -39.29999923706055
            ],
            "type" : "VEC3"
        },
        {
            "bufferView" : 10,
            "componentType" : 5126,
            "count" : 69,
            "type" : "VEC3"
        },
        {
            "bufferView" : 11,
            "componentType" : 5123,
            "count" : 69,
            "type" : "SCALAR"
        },
        {
            "bufferView" : 12,
            "componentType" : 5126,
            "count" : 2493,
            "max" : [
                36.349998474121094,
                36.349998474121094,
                -38.10350036621094
            ],
            "min" : [
                -36.052398681640625,
                -36.349998474121094,
                -39
            ],
            "type" : "VEC3"
        },
        {
            "bufferView" : 13,
            "componentType" : 5126,
            "count" : 2493,
            "type" : "VEC3"
        },
        {
            "bufferView" : 14,
            "componentType" : 5123,
            "count" : 2520,
            "type" : "SCALAR"
        }
    ],
    "bufferViews" : [
        {
            "buffer" : 0,
            "byteLength" : 200460,
            "byteOffset" : 0
        },
        {
            "buffer" : 0,
            "byteLength" : 200460,
            "byteOffset" : 200460
        },
        {
            "buffer" : 0,
            "byteLength" : 33588,
            "byteOffset" : 400920
        },
        {
            "buffer" : 0,
            "byteLength" : 207036,
            "byteOffset" : 434508
        },
        {
            "buffer" : 0,
            "byteLength" : 207036,
            "byteOffset" : 641544
        },
        {
            "buffer" : 0,
            "byteLength" : 34518,
            "byteOffset" : 848580
        },
        {
            "buffer" : 0,
            "byteLength" : 104832,
            "byteOffset" : 883100
        },
        {
            "buffer" : 0,
            "byteLength" : 104832,
            "byteOffset" : 987932
        },
        {
            "buffer" : 0,
            "byteLength" : 17514,
            "byteOffset" : 1092764
        },
        {
            "buffer" : 0,
            "byteLength" : 828,
            "byteOffset" : 1110280
        },
        {
            "buffer" : 0,
            "byteLength" : 828,
            "byteOffset" : 1111108
        },
        {
            "buffer" : 0,
            "byteLength" : 138,
            "byteOffset" : 1111936
        },
        {
            "buffer" : 0,
            "byteLength" : 29916,
            "byteOffset" : 1112076
        },
        {
            "buffer" : 0,
            "byteLength" : 29916,
            "byteOffset" : 1141992
        },
        {
            "buffer" : 0,
            "byteLength" : 5040,
            "byteOffset" : 1171908
        }
    ],
    "buffers" : [
        {
            "byteLength" : 1176948,
            "uri" : "data:application/octet-stream;base64,"
        }
    ]
}
