{"accessors" : [{"bufferView" : 0, "byteOffset" : 0, "componentType" : 5123, "count" : 33909, "type" : "SCALAR", "max" : [29640], "min" : [0]}, {"bufferView" : 1, "byteOffset" : 0, "componentType" : 5126, "count" : 29641, "type" : "VEC3", "max" : [40.234798431396484, 40.234798431396484, 0.30000001192092896], "min" : [-40.234798431396484, -64.00070190429688, -40], "name" : "POSITION"}, {"bufferView" : 1, "byteOffset" : 12, "componentType" : 5126, "count" : 29641, "type" : "VEC3", "max" : [1.0000044107437134, 1.0000044107437134, 1.0000044107437134], "min" : [-1.0000044107437134, -1.0000044107437134, -1.0000044107437134], "name" : "NORMAL"}, {"bufferView" : 0, "byteOffset" : 67820, "componentType" : 5123, "count" : 144, "type" : "SCALAR", "max" : [140], "min" : [0]}, {"bufferView" : 2, "byteOffset" : 0, "componentType" : 5126, "count" : 141, "type" : "VEC3", "max" : [25.25, 38.75, -39.099998474121094], "min" : [-38.75, -38.75, -39.099998474121094], "name" : "POSITION"}, {"bufferView" : 2, "byteOffset" : 12, "componentType" : 5126, "count" : 141, "type" : "VEC3", "max" : [0, 0, -1.0000044107437134], "min" : [0, 0, -1.0000044107437134], "name" : "NORMAL"}, {"bufferView" : 0, "byteOffset" : 68108, "componentType" : 5123, "count" : 8826, "type" : "SCALAR", "max" : [7800], "min" : [0]}, {"bufferView" : 3, "byteOffset" : 0, "componentType" : 5126, "count" : 7801, "type" : "VEC3", "max" : [38.73189926147461, 39.79999923706055, -16.988300323486328], "min" : [-38.73189926147461, -38.698299407958984, -40], "name" : "POSITION"}, {"bufferView" : 3, "byteOffset" : 12, "componentType" : 5126, "count" : 7801, "type" : "VEC3", "max" : [1.0000044107437134, 1.0000044107437134, 1.0000044107437134], "min" : [-1.0000044107437134, -1.0000044107437134, -1.0000044107437134], "name" : "NORMAL"}, {"bufferView" : 0, "byteOffset" : 85760, "componentType" : 5123, "count" : 2520, "type" : "SCALAR", "max" : [2278], "min" : [0]}, {"bufferView" : 4, "byteOffset" : 0, "componentType" : 5126, "count" : 2279, "type" : "VEC3", "max" : [36.349998474121094, 36.349998474121094, -38.10350036621094], "min" : [-36.052398681640625, -36.349998474121094, -39], "name" : "POSITION"}, {"bufferView" : 4, "byteOffset" : 12, "componentType" : 5126, "count" : 2279, "type" : "VEC3", "max" : [0.9999722838401794, 0.999961256980896, 1.0000044107437134], "min" : [-0.9998605251312256, -0.9989758729934692, -1.0000044107437134], "name" : "NORMAL"}], "asset" : {"generator" : "Aspose.3D 22.5.1", "version" : "2.0"}, "buffers" : [{"uri" : "data:application/octet-stream;base64,", "byteLength" : 1180396}], "bufferViews" : [{"buffer" : 0, "byteOffset" : 0, "byteLength" : 90800, "target" : 34963}, {"buffer" : 0, "byteOffset" : 90804, "byteLength" : 813816, "byteStride" : 24, "target" : 34962}, {"buffer" : 0, "byteOffset" : 904624, "byteLength" : 3456, "byteStride" : 24, "target" : 34962}, {"buffer" : 0, "byteOffset" : 908084, "byteLength" : 211824, "byteStride" : 24, "target" : 34962}, {"buffer" : 0, "byteOffset" : 1119912, "byteLength" : 60480, "byteStride" : 24, "target" : 34962}], "materials" : [{"name" : "Nr10001864_0Mat1", "pbrMetallicRoughness" : {"baseColorFactor" : [0, 0.647059, 0.529412, 1], "metallicFactor" : 0, "roughnessFactor" : 0}, "emissiveFactor" : [0, 0, 0], "alphaMode" : "OPAQUE", "doubleSided" : false}, {"name" : "Nr10001864_0Mat2", "pbrMetallicRoughness" : {"baseColorFactor" : [0.701961, 0.733333, 0.756863, 1], "metallicFactor" : 0, "roughnessFactor" : 0}, "emissiveFactor" : [0, 0, 0], "alphaMode" : "OPAQUE", "doubleSided" : false}, {"name" : "Nr10001865_0Mat1", "pbrMetallicRoughness" : {"baseColorFactor" : [0, 0.647059, 0.529412, 1], "metallicFactor" : 0, "roughnessFactor" : 0}, "emissiveFactor" : [0, 0, 0], "alphaMode" : "OPAQUE", "doubleSided" : false}, {"name" : "Nr10001866_0Mat1", "pbrMetallicRoughness" : {"baseColorFactor" : [0, 0.647059, 0.529412, 1], "metallicFactor" : 0, "roughnessFactor" : 0}, "emissiveFactor" : [0, 0, 0], "alphaMode" : "OPAQUE", "doubleSided" : false}], "meshes" : [{"primitives" : [{"attributes" : {"POSITION" : 1, "NORMAL" : 2}, "indices" : 0, "material" : 0, "mode" : 4}, {"attributes" : {"POSITION" : 4, "NORMAL" : 5}, "indices" : 3, "material" : 1, "mode" : 4}], "name" : ""}, {"primitives" : [{"attributes" : {"POSITION" : 7, "NORMAL" : 8}, "indices" : 6, "material" : 2, "mode" : 4}], "name" : ""}, {"primitives" : [{"attributes" : {"POSITION" : 10, "NORMAL" : 11}, "indices" : 9, "material" : 3, "mode" : 4}], "name" : ""}], "nodes" : [{"mesh" : 0, "name" : "_Read_write_stati10001864_0"}, {"mesh" : 1, "name" : "_Read_write_stati10001865_0"}, {"mesh" : 2, "name" : "_Read_write_stati10001866_0"}], "scene" : 0, "scenes" : [{"nodes" : [0, 1, 2]}]}