{"accessors" : [{"bufferView" : 0, "byteOffset" : 0, "componentType" : 5123, "count" : 35709, "type" : "SCALAR", "max" : [30260], "min" : [0]}, {"bufferView" : 1, "byteOffset" : 0, "componentType" : 5126, "count" : 30261, "type" : "VEC3", "max" : [29.637399673461914, 62.925201416015625, 0.0034719998948276043], "min" : [-31.801300048828125, -71.26119995117188, -41], "name" : "POSITION"}, {"bufferView" : 1, "byteOffset" : 12, "componentType" : 5126, "count" : 30261, "type" : "VEC3", "max" : [0.9996911287307739, 0.9999042749404907, 1.0000044107437134], "min" : [-0.9996617436408997, -1.0000044107437134, -1.0000044107437134], "name" : "NORMAL"}, {"bufferView" : 0, "byteOffset" : 71420, "componentType" : 5123, "count" : 198, "type" : "SCALAR", "max" : [193], "min" : [0]}, {"bufferView" : 2, "byteOffset" : 0, "componentType" : 5126, "count" : 194, "type" : "VEC3", "max" : [21.100000381469727, -64.9000015258789, 0], "min" : [-21.100000381469727, -68.0999984741211, -15], "name" : "POSITION"}, {"bufferView" : 2, "byteOffset" : 12, "componentType" : 5126, "count" : 194, "type" : "VEC3", "max" : [0.9978134036064148, 0.9978135228157043, 7.153182490782228E-09], "min" : [-0.9978134036064148, -0.9978135228157043, 0], "name" : "NORMAL"}, {"bufferView" : 0, "byteOffset" : 71816, "componentType" : 5123, "count" : 2754, "type" : "SCALAR", "max" : [2549], "min" : [0]}, {"bufferView" : 3, "byteOffset" : 0, "componentType" : 5126, "count" : 2550, "type" : "VEC3", "max" : [5.25, -49.75, -30.200000762939453], "min" : [-5.25, -60.25, -42], "name" : "POSITION"}, {"bufferView" : 3, "byteOffset" : 12, "componentType" : 5126, "count" : 2550, "type" : "VEC3", "max" : [1.0000035762786865, 1.0000035762786865, 1.0000044107437134], "min" : [-1.0000035762786865, -1.0000035762786865, -1.0000044107437134], "name" : "NORMAL"}, {"bufferView" : 0, "byteOffset" : 77324, "componentType" : 5123, "count" : 3588, "type" : "SCALAR", "max" : [3296], "min" : [0]}, {"bufferView" : 4, "byteOffset" : 0, "componentType" : 5126, "count" : 3297, "type" : "VEC3", "max" : [19.16080093383789, 47.16080093383789, -22.600000381469727], "min" : [10.839200019836426, 38.83919906616211, -32.30580139160156], "name" : "POSITION"}, {"bufferView" : 4, "byteOffset" : 12, "componentType" : 5126, "count" : 3297, "type" : "VEC3", "max" : [0.9999796748161316, 0.9999796748161316, 1.0000044107437134], "min" : [-0.9999746084213257, -0.9999746084213257, -1.0000044107437134], "name" : "NORMAL"}, {"bufferView" : 0, "byteOffset" : 84500, "componentType" : 5123, "count" : 3810, "type" : "SCALAR", "max" : [3475], "min" : [0]}, {"bufferView" : 5, "byteOffset" : 0, "componentType" : 5126, "count" : 3476, "type" : "VEC3", "max" : [19.155000686645508, -30.844999313354492, -22.600000381469727], "min" : [10.845000267028809, -39.154998779296875, -32.29999923706055], "name" : "POSITION"}, {"bufferView" : 5, "byteOffset" : 12, "componentType" : 5126, "count" : 3476, "type" : "VEC3", "max" : [0.9978135228157043, 0.999749481678009, 1.0000044107437134], "min" : [-0.9997495412826538, -0.9978135228157043, -1.0000044107437134], "name" : "NORMAL"}, {"bufferView" : 0, "byteOffset" : 92120, "componentType" : 5123, "count" : 3810, "type" : "SCALAR", "max" : [3475], "min" : [0]}, {"bufferView" : 6, "byteOffset" : 0, "componentType" : 5126, "count" : 3476, "type" : "VEC3", "max" : [-10.845000267028809, -30.844999313354492, -22.600000381469727], "min" : [-19.155000686645508, -39.154998779296875, -32.29999923706055], "name" : "POSITION"}, {"bufferView" : 6, "byteOffset" : 12, "componentType" : 5126, "count" : 3476, "type" : "VEC3", "max" : [0.9978135228157043, 0.999749481678009, 1.0000044107437134], "min" : [-0.9997495412826538, -0.9978135228157043, -1.0000044107437134], "name" : "NORMAL"}, {"bufferView" : 0, "byteOffset" : 99740, "componentType" : 5123, "count" : 3588, "type" : "SCALAR", "max" : [3296], "min" : [0]}, {"bufferView" : 7, "byteOffset" : 0, "componentType" : 5126, "count" : 3297, "type" : "VEC3", "max" : [-10.839200019836426, 47.16080093383789, -22.600000381469727], "min" : [-19.16080093383789, 38.83919906616211, -32.30580139160156], "name" : "POSITION"}, {"bufferView" : 7, "byteOffset" : 12, "componentType" : 5126, "count" : 3297, "type" : "VEC3", "max" : [0.9999796748161316, 0.9999796748161316, 1.0000044107437134], "min" : [-0.9999746084213257, -0.9999746084213257, -1.0000044107437134], "name" : "NORMAL"}], "asset" : {"generator" : "Aspose.3D 22.7", "version" : "2.0"}, "buffers" : [{"uri" : "data:application/octet-stream;base64,", "byteLength" : 1389916}], "bufferViews" : [{"buffer" : 0, "byteOffset" : 0, "byteLength" : 106916, "target" : 34963}, {"buffer" : 0, "byteOffset" : 106920, "byteLength" : 857016, "byteStride" : 24, "target" : 34962}, {"buffer" : 0, "byteOffset" : 963940, "byteLength" : 4752, "byteStride" : 24, "target" : 34962}, {"buffer" : 0, "byteOffset" : 968696, "byteLength" : 66096, "byteStride" : 24, "target" : 34962}, {"buffer" : 0, "byteOffset" : 1034796, "byteLength" : 86112, "byteStride" : 24, "target" : 34962}, {"buffer" : 0, "byteOffset" : 1120912, "byteLength" : 91440, "byteStride" : 24, "target" : 34962}, {"buffer" : 0, "byteOffset" : 1212356, "byteLength" : 91440, "byteStride" : 24, "target" : 34962}, {"buffer" : 0, "byteOffset" : 1303800, "byteLength" : 86112, "byteStride" : 24, "target" : 34962}], "materials" : [{"name" : "Nr10000329_0Mat47251", "pbrMetallicRoughness" : {"baseColorFactor" : [0, 0.721569, 0.576471, 1], "metallicFactor" : 0, "roughnessFactor" : 0}, "emissiveFactor" : [0, 0, 0], "alphaMode" : "OPAQUE", "doubleSided" : false}, {"name" : "Nr10000329_0Col58265", "pbrMetallicRoughness" : {"baseColorFactor" : [0, 0.890196, 0.6, 1], "metallicFactor" : 0, "roughnessFactor" : 0}, "emissiveFactor" : [0, 0, 0], "alphaMode" : "OPAQUE", "doubleSided" : false}, {"name" : "Nr10000330_0Mat14676479", "pbrMetallicRoughness" : {"baseColorFactor" : [0.87451, 0.945098, 1, 1], "metallicFactor" : 0, "roughnessFactor" : 0}, "emissiveFactor" : [0, 0, 0], "alphaMode" : "OPAQUE", "doubleSided" : false}, {"name" : "Nr10000331_0Mat14676479", "pbrMetallicRoughness" : {"baseColorFactor" : [0.87451, 0.945098, 1, 1], "metallicFactor" : 0, "roughnessFactor" : 0}, "emissiveFactor" : [0, 0, 0], "alphaMode" : "OPAQUE", "doubleSided" : false}, {"name" : "Nr10000332_0Mat14676479", "pbrMetallicRoughness" : {"baseColorFactor" : [0.87451, 0.945098, 1, 1], "metallicFactor" : 0, "roughnessFactor" : 0}, "emissiveFactor" : [0, 0, 0], "alphaMode" : "OPAQUE", "doubleSided" : false}, {"name" : "Nr10000333_0Mat14676479", "pbrMetallicRoughness" : {"baseColorFactor" : [0.87451, 0.945098, 1, 1], "metallicFactor" : 0, "roughnessFactor" : 0}, "emissiveFactor" : [0, 0, 0], "alphaMode" : "OPAQUE", "doubleSided" : false}, {"name" : "Nr10000334_0Mat14676479", "pbrMetallicRoughness" : {"baseColorFactor" : [0.87451, 0.945098, 1, 1], "metallicFactor" : 0, "roughnessFactor" : 0}, "emissiveFactor" : [0, 0, 0], "alphaMode" : "OPAQUE", "doubleSided" : false}], "meshes" : [{"primitives" : [{"attributes" : {"POSITION" : 1, "NORMAL" : 2}, "indices" : 0, "material" : 0, "mode" : 4}, {"attributes" : {"POSITION" : 4, "NORMAL" : 5}, "indices" : 3, "material" : 1, "mode" : 4}], "name" : ""}, {"primitives" : [{"attributes" : {"POSITION" : 7, "NORMAL" : 8}, "indices" : 6, "material" : 2, "mode" : 4}], "name" : ""}, {"primitives" : [{"attributes" : {"POSITION" : 10, "NORMAL" : 11}, "indices" : 9, "material" : 3, "mode" : 4}], "name" : ""}, {"primitives" : [{"attributes" : {"POSITION" : 13, "NORMAL" : 14}, "indices" : 12, "material" : 4, "mode" : 4}], "name" : ""}, {"primitives" : [{"attributes" : {"POSITION" : 16, "NORMAL" : 17}, "indices" : 15, "material" : 5, "mode" : 4}], "name" : ""}, {"primitives" : [{"attributes" : {"POSITION" : 19, "NORMAL" : 20}, "indices" : 18, "material" : 6, "mode" : 4}], "name" : ""}], "nodes" : [{"mesh" : 0, "name" : "_Control_interfac10000329_0"}, {"mesh" : 1, "name" : "_Control_interfac10000330_0"}, {"mesh" : 2, "name" : "_Control_interfac10000331_0"}, {"mesh" : 3, "name" : "_Control_interfac10000332_0"}, {"mesh" : 4, "name" : "_Control_interfac10000333_0"}, {"mesh" : 5, "name" : "_Control_interfac10000334_0"}], "scene" : 0, "scenes" : [{"nodes" : [0, 1, 2, 3, 4, 5]}]}