{"accessors" : [{"bufferView" : 0, "byteOffset" : 0, "componentType" : 5123, "count" : 1494, "type" : "SCALAR", "max" : [1297], "min" : [0]}, {"bufferView" : 1, "byteOffset" : 0, "componentType" : 5126, "count" : 1298, "type" : "VEC3", "max" : [20, 40.5, 20], "min" : [-20, 0, -20], "name" : "POSITION"}, {"bufferView" : 1, "byteOffset" : 12, "componentType" : 5126, "count" : 1298, "type" : "VEC3", "max" : [0.9996249079704285, 0.9931588768959045, 0.9993197917938232], "min" : [-0.9996249079704285, -0.999320387840271, -0.9931583404541016], "name" : "NORMAL"}, {"bufferView" : 0, "byteOffset" : 2988, "componentType" : 5123, "count" : 1302, "type" : "SCALAR", "max" : [1207], "min" : [0]}, {"bufferView" : 2, "byteOffset" : 0, "componentType" : 5126, "count" : 1208, "type" : "VEC3", "max" : [20, 25, 20], "min" : [-20, -31.5, -6], "name" : "POSITION"}, {"bufferView" : 2, "byteOffset" : 12, "componentType" : 5126, "count" : 1208, "type" : "VEC3", "max" : [0.9978134036064148, 1.0000044107437134, 0.9999925494194031], "min" : [-0.9978134036064148, -1.0000044107437134, -0.9978134036064148], "name" : "NORMAL"}, {"bufferView" : 0, "byteOffset" : 5592, "componentType" : 5123, "count" : 96, "type" : "SCALAR", "max" : [87], "min" : [0]}, {"bufferView" : 3, "byteOffset" : 0, "componentType" : 5126, "count" : 88, "type" : "VEC3", "max" : [6, -23.5, 6], "min" : [-6, -23.5, -6], "name" : "POSITION"}, {"bufferView" : 3, "byteOffset" : 12, "componentType" : 5126, "count" : 88, "type" : "VEC3", "max" : [0, 1.0000044107437134, 0], "min" : [0, 1.0000044107437134, 0], "name" : "NORMAL"}, {"bufferView" : 0, "byteOffset" : 5784, "componentType" : 5123, "count" : 5556, "type" : "SCALAR", "max" : [4904], "min" : [0]}, {"bufferView" : 4, "byteOffset" : 0, "componentType" : 5126, "count" : 4905, "type" : "VEC3", "max" : [20, 0, 20], "min" : [-20, -27, -20], "name" : "POSITION"}, {"bufferView" : 4, "byteOffset" : 12, "componentType" : 5126, "count" : 4905, "type" : "VEC3", "max" : [1.0000044107437134, 1.0000044107437134, 1.0000044107437134], "min" : [-1.0000044107437134, -1.0000044107437134, -1.0000044107437134], "name" : "NORMAL"}], "asset" : {"generator" : "Aspose.3D 22.5.1", "version" : "2.0"}, "buffers" : [{"uri" : "data:application/octet-stream;base64,", "byteLength" : 219668}], "bufferViews" : [{"buffer" : 0, "byteOffset" : 0, "byteLength" : 16896, "target" : 34963}, {"buffer" : 0, "byteOffset" : 16900, "byteLength" : 35856, "byteStride" : 24, "target" : 34962}, {"buffer" : 0, "byteOffset" : 52760, "byteLength" : 31248, "byteStride" : 24, "target" : 34962}, {"buffer" : 0, "byteOffset" : 84012, "byteLength" : 2304, "byteStride" : 24, "target" : 34962}, {"buffer" : 0, "byteOffset" : 86320, "byteLength" : 133344, "byteStride" : 24, "target" : 34962}], "materials" : [{"name" : "Nr10004202_0Mat39270", "pbrMetallicRoughness" : {"baseColorFactor" : [0, 0.6, 0.4, 1], "metallicFactor" : 0, "roughnessFactor" : 0}, "emissiveFactor" : [0, 0, 0], "alphaMode" : "OPAQUE", "doubleSided" : false}, {"name" : "Nr10004203_0Mat39270", "pbrMetallicRoughness" : {"baseColorFactor" : [0, 0.6, 0.4, 1], "metallicFactor" : 0, "roughnessFactor" : 0}, "emissiveFactor" : [0, 0, 0], "alphaMode" : "OPAQUE", "doubleSided" : false}, {"name" : "Nr10004203_0Col9803157", "pbrMetallicRoughness" : {"baseColorFactor" : [0.584314, 0.584314, 0.584314, 1], "metallicFactor" : 0, "roughnessFactor" : 0}, "emissiveFactor" : [0, 0, 0], "alphaMode" : "OPAQUE", "doubleSided" : false}, {"name" : "Nr10004204_0Mat39270", "pbrMetallicRoughness" : {"baseColorFactor" : [0, 0.6, 0.4, 1], "metallicFactor" : 0, "roughnessFactor" : 0}, "emissiveFactor" : [0, 0, 0], "alphaMode" : "OPAQUE", "doubleSided" : false}], "meshes" : [{"primitives" : [{"attributes" : {"POSITION" : 1, "NORMAL" : 2}, "indices" : 0, "material" : 0, "mode" : 4}], "name" : ""}, {"primitives" : [{"attributes" : {"POSITION" : 4, "NORMAL" : 5}, "indices" : 3, "material" : 1, "mode" : 4}, {"attributes" : {"POSITION" : 7, "NORMAL" : 8}, "indices" : 6, "material" : 2, "mode" : 4}], "name" : ""}, {"primitives" : [{"attributes" : {"POSITION" : 10, "NORMAL" : 11}, "indices" : 9, "material" : 3, "mode" : 4}], "name" : ""}], "nodes" : [{"mesh" : 0, "name" : "_Inductive_sensor10004202_0"}, {"mesh" : 1, "name" : "_Inductive_sensor10004203_0"}, {"mesh" : 2, "name" : "_Inductive_sensor10004204_0"}], "scene" : 0, "scenes" : [{"nodes" : [0, 1, 2]}]}