{
    "asset" : {
        "generator" : "Khronos glTF Blender I/O v1.6.16",
        "version" : "2.0"
    },
    "scene" : 0,
    "scenes" : [
        {
            "name" : "Scene",
            "nodes" : [
                0,
                1,
                2
            ]
        }
    ],
    "nodes" : [
        {
            "mesh" : 0,
            "name" : "_Inductive_sensor10004202_0"
        },
        {
            "mesh" : 1,
            "name" : "_Inductive_sensor10004203_0"
        },
        {
            "mesh" : 2,
            "name" : "_Inductive_sensor10004204_0"
        }
    ],
    "materials" : [
        {
            "name" : "Nr10004202_0Mat39270",
            "pbrMetallicRoughness" : {
                "baseColorFactor" : [
                    0,
                    0.37626227736473083,
                    0.24228115379810333,
                    1
                ],
                "metallicFactor" : 0,
                "roughnessFactor" : 0.5
            }
        },
        {
            "name" : "Nr10004204_0Mat39270",
            "pbrMetallicRoughness" : {
                "baseColorFactor" : [
                    0.0159962996840477,
                    0.01599629409611225,
                    0.0159962959587574,
                    1
                ],
                "metallicFactor" : 0
            }
        },
        {
            "name" : "Nr10004203_0Col9803157",
            "pbrMetallicRoughness" : {
                "baseColorFactor" : [
                    0.5843139886856079,
                    0.5843139886856079,
                    0.5843139886856079,
                    1
                ],
                "metallicFactor" : 0,
                "roughnessFactor" : 0
            }
        },
        {
            "doubleSided" : true,
            "name" : "Material.008",
            "pbrMetallicRoughness" : {
                "baseColorFactor" : [
                    0.2462015002965927,
                    0.24620139598846436,
                    0.24620141088962555,
                    1
                ],
                "metallicFactor" : 0,
                "roughnessFactor" : 0
            }
        }
    ],
    "meshes" : [
        {
            "name" : "Mesh_0.005",
            "primitives" : [
                {
                    "attributes" : {
                        "POSITION" : 0,
                        "NORMAL" : 1
                    },
                    "indices" : 2,
                    "material" : 0
                }
            ]
        },
        {
            "name" : "Mesh_1.004",
            "primitives" : [
                {
                    "attributes" : {
                        "POSITION" : 3,
                        "NORMAL" : 4
                    },
                    "indices" : 5,
                    "material" : 1
                },
                {
                    "attributes" : {
                        "POSITION" : 6,
                        "NORMAL" : 7
                    },
                    "indices" : 8,
                    "material" : 2
                }
            ]
        },
        {
            "name" : "Mesh_2.004",
            "primitives" : [
                {
                    "attributes" : {
                        "POSITION" : 9,
                        "NORMAL" : 10
                    },
                    "indices" : 11,
                    "material" : 1
                },
                {
                    "attributes" : {
                        "POSITION" : 12,
                        "NORMAL" : 13
                    },
                    "indices" : 14,
                    "material" : 3
                }
            ]
        }
    ],
    "accessors" : [
        {
            "bufferView" : 0,
            "componentType" : 5126,
            "count" : 1493,
            "max" : [
                20,
                40.5,
                20
            ],
            "min" : [
                -20,
                0,
                -20
            ],
            "type" : "VEC3"
        },
        {
            "bufferView" : 1,
            "componentType" : 5126,
            "count" : 1493,
            "type" : "VEC3"
        },
        {
            "bufferView" : 2,
            "componentType" : 5123,
            "count" : 1494,
            "type" : "SCALAR"
        },
        {
            "bufferView" : 3,
            "componentType" : 5126,
            "count" : 861,
            "max" : [
                20,
                25,
                20
            ],
            "min" : [
                -20,
                0,
                -6
            ],
            "type" : "VEC3"
        },
        {
            "bufferView" : 4,
            "componentType" : 5126,
            "count" : 861,
            "type" : "VEC3"
        },
        {
            "bufferView" : 5,
            "componentType" : 5123,
            "count" : 864,
            "type" : "SCALAR"
        },
        {
            "bufferView" : 6,
            "componentType" : 5126,
            "count" : 529,
            "max" : [
                6,
                0,
                6
            ],
            "min" : [
                -6,
                -31.5,
                -6
            ],
            "type" : "VEC3"
        },
        {
            "bufferView" : 7,
            "componentType" : 5126,
            "count" : 529,
            "type" : "VEC3"
        },
        {
            "bufferView" : 8,
            "componentType" : 5123,
            "count" : 534,
            "type" : "SCALAR"
        },
        {
            "bufferView" : 9,
            "componentType" : 5126,
            "count" : 5261,
            "max" : [
                20,
                0,
                20
            ],
            "min" : [
                -20,
                -27,
                -20
            ],
            "type" : "VEC3"
        },
        {
            "bufferView" : 10,
            "componentType" : 5126,
            "count" : 5261,
            "type" : "VEC3"
        },
        {
            "bufferView" : 11,
            "componentType" : 5123,
            "count" : 5319,
            "type" : "SCALAR"
        },
        {
            "bufferView" : 12,
            "componentType" : 5126,
            "count" : 235,
            "max" : [
                4.415150165557861,
                -1,
                -10.633199691772461
            ],
            "min" : [
                -20,
                -12,
                -19.488300323486328
            ],
            "type" : "VEC3"
        },
        {
            "bufferView" : 13,
            "componentType" : 5126,
            "count" : 235,
            "type" : "VEC3"
        },
        {
            "bufferView" : 14,
            "componentType" : 5123,
            "count" : 237,
            "type" : "SCALAR"
        }
    ],
    "bufferViews" : [
        {
            "buffer" : 0,
            "byteLength" : 17916,
            "byteOffset" : 0
        },
        {
            "buffer" : 0,
            "byteLength" : 17916,
            "byteOffset" : 17916
        },
        {
            "buffer" : 0,
            "byteLength" : 2988,
            "byteOffset" : 35832
        },
        {
            "buffer" : 0,
            "byteLength" : 10332,
            "byteOffset" : 38820
        },
        {
            "buffer" : 0,
            "byteLength" : 10332,
            "byteOffset" : 49152
        },
        {
            "buffer" : 0,
            "byteLength" : 1728,
            "byteOffset" : 59484
        },
        {
            "buffer" : 0,
            "byteLength" : 6348,
            "byteOffset" : 61212
        },
        {
            "buffer" : 0,
            "byteLength" : 6348,
            "byteOffset" : 67560
        },
        {
            "buffer" : 0,
            "byteLength" : 1068,
            "byteOffset" : 73908
        },
        {
            "buffer" : 0,
            "byteLength" : 63132,
            "byteOffset" : 74976
        },
        {
            "buffer" : 0,
            "byteLength" : 63132,
            "byteOffset" : 138108
        },
        {
            "buffer" : 0,
            "byteLength" : 10638,
            "byteOffset" : 201240
        },
        {
            "buffer" : 0,
            "byteLength" : 2820,
            "byteOffset" : 211880
        },
        {
            "buffer" : 0,
            "byteLength" : 2820,
            "byteOffset" : 214700
        },
        {
            "buffer" : 0,
            "byteLength" : 474,
            "byteOffset" : 217520
        }
    ],
    "buffers" : [
        {
            "byteLength" : 217996,
            "uri" : "data:application/octet-stream;base64,"
        }
    ]
}
