{"accessors" : [{"bufferView" : 0, "byteOffset" : 0, "componentType" : 5123, "count" : 3327, "type" : "SCALAR", "max" : [2900], "min" : [0]}, {"bufferView" : 1, "byteOffset" : 0, "componentType" : 5126, "count" : 2901, "type" : "VEC3", "max" : [5, -23.147199630737305, 20.584299087524414], "min" : [-5, -33.14720153808594, 9.884340286254883], "name" : "POSITION"}, {"bufferView" : 1, "byteOffset" : 12, "componentType" : 5126, "count" : 2901, "type" : "VEC3", "max" : [0.9978134036064148, 0.9978134036064148, 1.0000044107437134], "min" : [-1.0000033378601074, -0.9978132843971252, -1.0000044107437134], "name" : "NORMAL"}, {"bufferView" : 0, "byteOffset" : 6656, "componentType" : 5123, "count" : 16494, "type" : "SCALAR", "max" : [14323], "min" : [0]}, {"bufferView" : 2, "byteOffset" : 0, "componentType" : 5126, "count" : 14324, "type" : "VEC3", "max" : [7.550059795379639, 5.808889865875244, 21.584299087524414], "min" : [-7.550059795379639, -35.89630126953125, -45.81880187988281], "name" : "POSITION"}, {"bufferView" : 2, "byteOffset" : 12, "componentType" : 5126, "count" : 14324, "type" : "VEC3", "max" : [1.0000044107437134, 1.0000028610229492, 1.0000044107437134], "min" : [-1.0000044107437134, -1.0000044107437134, -1.0000044107437134], "name" : "NORMAL"}, {"bufferView" : 0, "byteOffset" : 39644, "componentType" : 5123, "count" : 576, "type" : "SCALAR", "max" : [521], "min" : [0]}, {"bufferView" : 3, "byteOffset" : 0, "componentType" : 5126, "count" : 522, "type" : "VEC3", "max" : [4.199999809265137, -23.947200775146484, 10.33080005645752], "min" : [-4.199999809265137, -32.347198486328125, 9.884340286254883], "name" : "POSITION"}, {"bufferView" : 3, "byteOffset" : 12, "componentType" : 5126, "count" : 522, "type" : "VEC3", "max" : [0.9978134036064148, 0.9978134036064148, 0.7653547525405884], "min" : [-0.9978134036064148, -0.9978134036064148, -1.0000044107437134], "name" : "NORMAL"}], "asset" : {"generator" : "Aspose.3D 22.5.1", "version" : "2.0"}, "buffers" : [{"uri" : "data:application/octet-stream;base64,", "byteLength" : 530340}], "bufferViews" : [{"buffer" : 0, "byteOffset" : 0, "byteLength" : 40796, "target" : 34963}, {"buffer" : 0, "byteOffset" : 40800, "byteLength" : 79848, "byteStride" : 24, "target" : 34962}, {"buffer" : 0, "byteOffset" : 120652, "byteLength" : 395856, "byteStride" : 24, "target" : 34962}, {"buffer" : 0, "byteOffset" : 516512, "byteLength" : 13824, "byteStride" : 24, "target" : 34962}], "materials" : [{"name" : "Nr10001732_0Mat1", "pbrMetallicRoughness" : {"baseColorFactor" : [0, 0.647059, 0.529412, 1], "metallicFactor" : 0, "roughnessFactor" : 0}, "emissiveFactor" : [0, 0, 0], "alphaMode" : "OPAQUE", "doubleSided" : false}, {"name" : "Nr10001733_0Mat1", "pbrMetallicRoughness" : {"baseColorFactor" : [0, 0.647059, 0.529412, 1], "metallicFactor" : 0, "roughnessFactor" : 0}, "emissiveFactor" : [0, 0, 0], "alphaMode" : "OPAQUE", "doubleSided" : false}, {"name" : "Nr10001734_0Mat1", "pbrMetallicRoughness" : {"baseColorFactor" : [0, 0.647059, 0.529412, 1], "metallicFactor" : 0, "roughnessFactor" : 0}, "emissiveFactor" : [0, 0, 0], "alphaMode" : "OPAQUE", "doubleSided" : false}], "meshes" : [{"primitives" : [{"attributes" : {"POSITION" : 1, "NORMAL" : 2}, "indices" : 0, "material" : 0, "mode" : 4}], "name" : ""}, {"primitives" : [{"attributes" : {"POSITION" : 4, "NORMAL" : 5}, "indices" : 3, "material" : 1, "mode" : 4}], "name" : ""}, {"primitives" : [{"attributes" : {"POSITION" : 7, "NORMAL" : 8}, "indices" : 6, "material" : 2, "mode" : 4}], "name" : ""}], "nodes" : [{"mesh" : 0, "name" : "_Distance_sensor_10001732_0"}, {"mesh" : 1, "name" : "_Distance_sensor_10001733_0"}, {"mesh" : 2, "name" : "_Distance_sensor_10001734_0"}], "scene" : 0, "scenes" : [{"nodes" : [0, 1, 2]}]}