{
    "asset" : {
        "generator" : "Khronos glTF Blender I/O v1.6.16",
        "version" : "2.0"
    },
    "scene" : 0,
    "scenes" : [
        {
            "name" : "Scene",
            "nodes" : [
                0,
                1,
                2,
                3
            ]
        }
    ],
    "nodes" : [
        {
            "mesh" : 0,
            "name" : "_Distance_sensor_10001732_0"
        },
        {
            "mesh" : 1,
            "name" : "_Distance_sensor_10001733_0"
        },
        {
            "mesh" : 2,
            "name" : "_Distance_sensor_10001734_0"
        },
        {
            "name" : "Camera",
            "rotation" : [
                0.483536034822464,
                0.33687159419059753,
                -0.20870360732078552,
                0.7804827094078064
            ],
            "translation" : [
                7.358891487121582,
                4.958309173583984,
                6.925790786743164
            ]
        }
    ],
    "materials" : [
        {
            "name" : "Nr10001732_0Mat1",
            "pbrMetallicRoughness" : {
                "baseColorFactor" : [
                    0,
                    0.6470590233802795,
                    0.5294119715690613,
                    1
                ],
                "metallicFactor" : 0,
                "roughnessFactor" : 0
            }
        },
        {
            "name" : "Nr10001733_0Mat1",
            "pbrMetallicRoughness" : {
                "baseColorFactor" : [
                    0,
                    0.0010314412647858262,
                    0.0009450998622924089,
                    1
                ],
                "metallicFactor" : 0,
                "roughnessFactor" : 0
            }
        },
        {
            "doubleSided" : true,
            "name" : "Material.001",
            "pbrMetallicRoughness" : {
                "baseColorFactor" : [
                    0.1901778280735016,
                    0.0009635912138037384,
                    0.001873109140433371,
                    1
                ],
                "metallicFactor" : 0,
                "roughnessFactor" : 0.5
            }
        },
        {
            "doubleSided" : true,
            "name" : "Material.002",
            "pbrMetallicRoughness" : {
                "baseColorFactor" : [
                    0.41093865036964417,
                    0.41093865036964417,
                    0.41093865036964417,
                    1
                ],
                "metallicFactor" : 0,
                "roughnessFactor" : 0.5
            }
        },
        {
            "doubleSided" : true,
            "name" : "Material.003",
            "pbrMetallicRoughness" : {
                "baseColorFactor" : [
                    0.800000011920929,
                    0.800000011920929,
                    0.800000011920929,
                    1
                ],
                "metallicFactor" : 0,
                "roughnessFactor" : 0.5
            }
        },
        {
            "doubleSided" : true,
            "name" : "Material.004",
            "pbrMetallicRoughness" : {
                "baseColorFactor" : [
                    0,
                    0.37626227736473083,
                    0.24228115379810333,
                    1
                ],
                "metallicFactor" : 0,
                "roughnessFactor" : 0.5
            }
        },
        {
            "name" : "Nr10001734_0Mat1",
            "pbrMetallicRoughness" : {
                "baseColorFactor" : [
                    0,
                    0.6470590233802795,
                    0.5294119715690613,
                    1
                ],
                "metallicFactor" : 0,
                "roughnessFactor" : 0
            }
        }
    ],
    "meshes" : [
        {
            "name" : "Mesh_0",
            "primitives" : [
                {
                    "attributes" : {
                        "POSITION" : 0,
                        "NORMAL" : 1
                    },
                    "indices" : 2,
                    "material" : 0
                }
            ]
        },
        {
            "name" : "Mesh_1",
            "primitives" : [
                {
                    "attributes" : {
                        "POSITION" : 3,
                        "NORMAL" : 4
                    },
                    "indices" : 5,
                    "material" : 1
                },
                {
                    "attributes" : {
                        "POSITION" : 6,
                        "NORMAL" : 7
                    },
                    "indices" : 8,
                    "material" : 2
                },
                {
                    "attributes" : {
                        "POSITION" : 9,
                        "NORMAL" : 10
                    },
                    "indices" : 11,
                    "material" : 3
                },
                {
                    "attributes" : {
                        "POSITION" : 12,
                        "NORMAL" : 13
                    },
                    "indices" : 14,
                    "material" : 4
                },
                {
                    "attributes" : {
                        "POSITION" : 15,
                        "NORMAL" : 16
                    },
                    "indices" : 17,
                    "material" : 5
                }
            ]
        },
        {
            "name" : "Mesh_2",
            "primitives" : [
                {
                    "attributes" : {
                        "POSITION" : 18,
                        "NORMAL" : 19
                    },
                    "indices" : 20,
                    "material" : 6
                }
            ]
        }
    ],
    "accessors" : [
        {
            "bufferView" : 0,
            "componentType" : 5126,
            "count" : 3327,
            "max" : [
                5,
                -23.147199630737305,
                20.584299087524414
            ],
            "min" : [
                -5,
                -33.14720153808594,
                9.884340286254883
            ],
            "type" : "VEC3"
        },
        {
            "bufferView" : 1,
            "componentType" : 5126,
            "count" : 3327,
            "type" : "VEC3"
        },
        {
            "bufferView" : 2,
            "componentType" : 5123,
            "count" : 3327,
            "type" : "SCALAR"
        },
        {
            "bufferView" : 3,
            "componentType" : 5126,
            "count" : 6870,
            "max" : [
                7.550059795379639,
                5.808889865875244,
                21.584299087524414
            ],
            "min" : [
                -7.550059795379639,
                -35.89630126953125,
                -44.60089874267578
            ],
            "type" : "VEC3"
        },
        {
            "bufferView" : 4,
            "componentType" : 5126,
            "count" : 6870,
            "type" : "VEC3"
        },
        {
            "bufferView" : 5,
            "componentType" : 5123,
            "count" : 6891,
            "type" : "SCALAR"
        },
        {
            "bufferView" : 6,
            "componentType" : 5126,
            "count" : 6,
            "max" : [
                6.574999809265137,
                5.631380081176758,
                -3.22379994392395
            ],
            "min" : [
                -6.574999809265137,
                4.806809902191162,
                -34.7130012512207
            ],
            "type" : "VEC3"
        },
        {
            "bufferView" : 7,
            "componentType" : 5126,
            "count" : 6,
            "type" : "VEC3"
        },
        {
            "bufferView" : 8,
            "componentType" : 5123,
            "count" : 6,
            "type" : "SCALAR"
        },
        {
            "bufferView" : 9,
            "componentType" : 5126,
            "count" : 3954,
            "max" : [
                6,
                -22.147199630737305,
                21.584299087524414
            ],
            "min" : [
                -6,
                -34.14720153808594,
                9.884340286254883
            ],
            "type" : "VEC3"
        },
        {
            "bufferView" : 10,
            "componentType" : 5126,
            "count" : 3954,
            "type" : "VEC3"
        },
        {
            "bufferView" : 11,
            "componentType" : 5123,
            "count" : 3963,
            "type" : "SCALAR"
        },
        {
            "bufferView" : 12,
            "componentType" : 5126,
            "count" : 288,
            "max" : [
                4.749839782714844,
                -22.996700286865234,
                -44.11280059814453
            ],
            "min" : [
                -4.749839782714844,
                -28.719999313354492,
                -45.81880187988281
            ],
            "type" : "VEC3"
        },
        {
            "bufferView" : 13,
            "componentType" : 5126,
            "count" : 288,
            "type" : "VEC3"
        },
        {
            "bufferView" : 14,
            "componentType" : 5123,
            "count" : 288,
            "type" : "SCALAR"
        },
        {
            "bufferView" : 15,
            "componentType" : 5126,
            "count" : 5337,
            "max" : [
                6.652939796447754,
                5.734419822692871,
                -34.79999923706055
            ],
            "min" : [
                -6.625,
                -14.5,
                -42.97840118408203
            ],
            "type" : "VEC3"
        },
        {
            "bufferView" : 16,
            "componentType" : 5126,
            "count" : 5337,
            "type" : "VEC3"
        },
        {
            "bufferView" : 17,
            "componentType" : 5123,
            "count" : 5346,
            "type" : "SCALAR"
        },
        {
            "bufferView" : 18,
            "componentType" : 5126,
            "count" : 573,
            "max" : [
                4.199999809265137,
                -23.947200775146484,
                10.33080005645752
            ],
            "min" : [
                -4.199999809265137,
                -32.347198486328125,
                9.884340286254883
            ],
            "type" : "VEC3"
        },
        {
            "bufferView" : 19,
            "componentType" : 5126,
            "count" : 573,
            "type" : "VEC3"
        },
        {
            "bufferView" : 20,
            "componentType" : 5123,
            "count" : 576,
            "type" : "SCALAR"
        }
    ],
    "bufferViews" : [
        {
            "buffer" : 0,
            "byteLength" : 39924,
            "byteOffset" : 0
        },
        {
            "buffer" : 0,
            "byteLength" : 39924,
            "byteOffset" : 39924
        },
        {
            "buffer" : 0,
            "byteLength" : 6654,
            "byteOffset" : 79848
        },
        {
            "buffer" : 0,
            "byteLength" : 82440,
            "byteOffset" : 86504
        },
        {
            "buffer" : 0,
            "byteLength" : 82440,
            "byteOffset" : 168944
        },
        {
            "buffer" : 0,
            "byteLength" : 13782,
            "byteOffset" : 251384
        },
        {
            "buffer" : 0,
            "byteLength" : 72,
            "byteOffset" : 265168
        },
        {
            "buffer" : 0,
            "byteLength" : 72,
            "byteOffset" : 265240
        },
        {
            "buffer" : 0,
            "byteLength" : 12,
            "byteOffset" : 265312
        },
        {
            "buffer" : 0,
            "byteLength" : 47448,
            "byteOffset" : 265324
        },
        {
            "buffer" : 0,
            "byteLength" : 47448,
            "byteOffset" : 312772
        },
        {
            "buffer" : 0,
            "byteLength" : 7926,
            "byteOffset" : 360220
        },
        {
            "buffer" : 0,
            "byteLength" : 3456,
            "byteOffset" : 368148
        },
        {
            "buffer" : 0,
            "byteLength" : 3456,
            "byteOffset" : 371604
        },
        {
            "buffer" : 0,
            "byteLength" : 576,
            "byteOffset" : 375060
        },
        {
            "buffer" : 0,
            "byteLength" : 64044,
            "byteOffset" : 375636
        },
        {
            "buffer" : 0,
            "byteLength" : 64044,
            "byteOffset" : 439680
        },
        {
            "buffer" : 0,
            "byteLength" : 10692,
            "byteOffset" : 503724
        },
        {
            "buffer" : 0,
            "byteLength" : 6876,
            "byteOffset" : 514416
        },
        {
            "buffer" : 0,
            "byteLength" : 6876,
            "byteOffset" : 521292
        },
        {
            "buffer" : 0,
            "byteLength" : 1152,
            "byteOffset" : 528168
        }
    ],
    "buffers" : [
        {
            "byteLength" : 529320,
            "uri" : "data:application/octet-stream;base64,"
        }
    ]
}
