{
    "asset" : {
        "generator" : "Khronos glTF Blender I/O v1.6.16",
        "version" : "2.0"
    },
    "scene" : 0,
    "scenes" : [
        {
            "name" : "Scene",
            "nodes" : [
                0
            ]
        }
    ],
    "nodes" : [
        {
            "mesh" : 0,
            "name" : "_Inductive_positi10000261_0"
        }
    ],
    "materials" : [
        {
            "name" : "Nr10000261_0Mat11779009",
            "pbrMetallicRoughness" : {
                "baseColorFactor" : [
                    0.7019609808921814,
                    0.7333329916000366,
                    0.756862998008728,
                    1
                ],
                "metallicFactor" : 0,
                "roughnessFactor" : 0
            }
        },
        {
            "name" : "Nr10000261_0Col11648457",
            "pbrMetallicRoughness" : {
                "baseColorFactor" : [
                    0.6941180229187012,
                    0.7411760091781616,
                    0.7882350087165833,
                    1
                ],
                "metallicFactor" : 0,
                "roughnessFactor" : 0
            }
        },
        {
            "name" : "Nr10000261_0Col42375",
            "pbrMetallicRoughness" : {
                "baseColorFactor" : [
                    0,
                    0.37626227736473083,
                    0.24228115379810333,
                    1
                ],
                "metallicFactor" : 0,
                "roughnessFactor" : 0.5
            }
        },
        {
            "doubleSided" : true,
            "name" : "Material.005",
            "pbrMetallicRoughness" : {
                "baseColorFactor" : [
                    0.004241848364472389,
                    0.004241848364472389,
                    0.004241848364472389,
                    1
                ],
                "metallicFactor" : 0,
                "roughnessFactor" : 0.5
            }
        }
    ],
    "meshes" : [
        {
            "name" : "Mesh_0.001",
            "primitives" : [
                {
                    "attributes" : {
                        "POSITION" : 0,
                        "NORMAL" : 1
                    },
                    "indices" : 2,
                    "material" : 0
                },
                {
                    "attributes" : {
                        "POSITION" : 3,
                        "NORMAL" : 4
                    },
                    "indices" : 5,
                    "material" : 1
                },
                {
                    "attributes" : {
                        "POSITION" : 6,
                        "NORMAL" : 7
                    },
                    "indices" : 8,
                    "material" : 2
                },
                {
                    "attributes" : {
                        "POSITION" : 9,
                        "NORMAL" : 10
                    },
                    "indices" : 11,
                    "material" : 3
                }
            ]
        }
    ],
    "accessors" : [
        {
            "bufferView" : 0,
            "componentType" : 5126,
            "count" : 7365,
            "max" : [
                19.799999237060547,
                11.479900360107422,
                -11.600000381469727
            ],
            "min" : [
                -1.5,
                -7,
                -43
            ],
            "type" : "VEC3"
        },
        {
            "bufferView" : 1,
            "componentType" : 5126,
            "count" : 7365,
            "type" : "VEC3"
        },
        {
            "bufferView" : 2,
            "componentType" : 5123,
            "count" : 7404,
            "type" : "SCALAR"
        },
        {
            "bufferView" : 3,
            "componentType" : 5126,
            "count" : 764,
            "max" : [
                4,
                4.25,
                -1.75
            ],
            "min" : [
                1.5,
                -4.25,
                -58.25
            ],
            "type" : "VEC3"
        },
        {
            "bufferView" : 4,
            "componentType" : 5126,
            "count" : 764,
            "type" : "VEC3"
        },
        {
            "bufferView" : 5,
            "componentType" : 5123,
            "count" : 768,
            "type" : "SCALAR"
        },
        {
            "bufferView" : 6,
            "componentType" : 5126,
            "count" : 2999,
            "max" : [
                10.399999618530273,
                11.5,
                -0.00698099983856082
            ],
            "min" : [
                -20.163700103759766,
                -11.5,
                -60.00699996948242
            ],
            "type" : "VEC3"
        },
        {
            "bufferView" : 7,
            "componentType" : 5126,
            "count" : 2999,
            "type" : "VEC3"
        },
        {
            "bufferView" : 8,
            "componentType" : 5123,
            "count" : 3024,
            "type" : "SCALAR"
        },
        {
            "bufferView" : 9,
            "componentType" : 5126,
            "count" : 834,
            "max" : [
                -4,
                11.5,
                -0.00698099983856082
            ],
            "min" : [
                -20.200000762939453,
                -11.5,
                -60.00699996948242
            ],
            "type" : "VEC3"
        },
        {
            "bufferView" : 10,
            "componentType" : 5126,
            "count" : 834,
            "type" : "VEC3"
        },
        {
            "bufferView" : 11,
            "componentType" : 5123,
            "count" : 834,
            "type" : "SCALAR"
        }
    ],
    "bufferViews" : [
        {
            "buffer" : 0,
            "byteLength" : 88380,
            "byteOffset" : 0
        },
        {
            "buffer" : 0,
            "byteLength" : 88380,
            "byteOffset" : 88380
        },
        {
            "buffer" : 0,
            "byteLength" : 14808,
            "byteOffset" : 176760
        },
        {
            "buffer" : 0,
            "byteLength" : 9168,
            "byteOffset" : 191568
        },
        {
            "buffer" : 0,
            "byteLength" : 9168,
            "byteOffset" : 200736
        },
        {
            "buffer" : 0,
            "byteLength" : 1536,
            "byteOffset" : 209904
        },
        {
            "buffer" : 0,
            "byteLength" : 35988,
            "byteOffset" : 211440
        },
        {
            "buffer" : 0,
            "byteLength" : 35988,
            "byteOffset" : 247428
        },
        {
            "buffer" : 0,
            "byteLength" : 6048,
            "byteOffset" : 283416
        },
        {
            "buffer" : 0,
            "byteLength" : 10008,
            "byteOffset" : 289464
        },
        {
            "buffer" : 0,
            "byteLength" : 10008,
            "byteOffset" : 299472
        },
        {
            "buffer" : 0,
            "byteLength" : 1668,
            "byteOffset" : 309480
        }
    ],
    "buffers" : [
        {
            "byteLength" : 311148,
            "uri" : "data:application/octet-stream;base64,"
        }
    ]
}
