{"accessors" : [{"bufferView" : 0, "byteOffset" : 0, "componentType" : 5123, "count" : 7404, "type" : "SCALAR", "max" : [6710], "min" : [0]}, {"bufferView" : 1, "byteOffset" : 0, "componentType" : 5126, "count" : 6711, "type" : "VEC3", "max" : [19.799999237060547, 11.479900360107422, -11.600000381469727], "min" : [-1.5, -7, -43], "name" : "POSITION"}, {"bufferView" : 1, "byteOffset" : 12, "componentType" : 5126, "count" : 6711, "type" : "VEC3", "max" : [1.0000044107437134, 0.9999799132347107, 1.0000044107437134], "min" : [-1.0000044107437134, -0.9993465542793274, -1.0000044107437134], "name" : "NORMAL"}, {"bufferView" : 0, "byteOffset" : 14808, "componentType" : 5123, "count" : 768, "type" : "SCALAR", "max" : [762], "min" : [0]}, {"bufferView" : 2, "byteOffset" : 0, "componentType" : 5126, "count" : 763, "type" : "VEC3", "max" : [4, 4.25, -1.75], "min" : [1.5, -4.25, -58.25], "name" : "POSITION"}, {"bufferView" : 2, "byteOffset" : 12, "componentType" : 5126, "count" : 763, "type" : "VEC3", "max" : [1.0000044107437134, 0.9978134036064148, 0.9978132843971252], "min" : [0, -0.9978134036064148, -0.9978132843971252], "name" : "NORMAL"}, {"bufferView" : 0, "byteOffset" : 16344, "componentType" : 5123, "count" : 3858, "type" : "SCALAR", "max" : [3453], "min" : [0]}, {"bufferView" : 3, "byteOffset" : 0, "componentType" : 5126, "count" : 3454, "type" : "VEC3", "max" : [10.399999618530273, 11.5, -0.00698099983856082], "min" : [-20.200000762939453, -11.5, -60.00699996948242], "name" : "POSITION"}, {"bufferView" : 3, "byteOffset" : 12, "componentType" : 5126, "count" : 3454, "type" : "VEC3", "max" : [1.0000044107437134, 0.9999662637710571, 1.0000044107437134], "min" : [-1.0000044107437134, -0.9978314638137817, -1.0000044107437134], "name" : "NORMAL"}], "asset" : {"generator" : "Aspose.3D 22.5.1", "version" : "2.0"}, "buffers" : [{"uri" : "data:application/octet-stream;base64,", "byteLength" : 312796}], "bufferViews" : [{"buffer" : 0, "byteOffset" : 0, "byteLength" : 24060, "target" : 34963}, {"buffer" : 0, "byteOffset" : 24064, "byteLength" : 177696, "byteStride" : 24, "target" : 34962}, {"buffer" : 0, "byteOffset" : 201764, "byteLength" : 18432, "byteStride" : 24, "target" : 34962}, {"buffer" : 0, "byteOffset" : 220200, "byteLength" : 92592, "byteStride" : 24, "target" : 34962}], "materials" : [{"name" : "Nr10000261_0Mat11779009", "pbrMetallicRoughness" : {"baseColorFactor" : [0.701961, 0.733333, 0.756863, 1], "metallicFactor" : 0, "roughnessFactor" : 0}, "emissiveFactor" : [0, 0, 0], "alphaMode" : "OPAQUE", "doubleSided" : false}, {"name" : "Nr10000261_0Col11648457", "pbrMetallicRoughness" : {"baseColorFactor" : [0.694118, 0.741176, 0.788235, 1], "metallicFactor" : 0, "roughnessFactor" : 0}, "emissiveFactor" : [0, 0, 0], "alphaMode" : "OPAQUE", "doubleSided" : false}, {"name" : "Nr10000261_0Col42375", "pbrMetallicRoughness" : {"baseColorFactor" : [0, 0.647059, 0.529412, 1], "metallicFactor" : 0, "roughnessFactor" : 0}, "emissiveFactor" : [0, 0, 0], "alphaMode" : "OPAQUE", "doubleSided" : false}], "meshes" : [{"primitives" : [{"attributes" : {"POSITION" : 1, "NORMAL" : 2}, "indices" : 0, "material" : 0, "mode" : 4}, {"attributes" : {"POSITION" : 4, "NORMAL" : 5}, "indices" : 3, "material" : 1, "mode" : 4}, {"attributes" : {"POSITION" : 7, "NORMAL" : 8}, "indices" : 6, "material" : 2, "mode" : 4}], "name" : ""}], "nodes" : [{"mesh" : 0, "name" : "_Inductive_positi10000261_0"}], "scene" : 0, "scenes" : [{"nodes" : [0]}]}