{
    "asset" : {
        "generator" : "Khronos glTF Blender I/O v1.6.16",
        "version" : "2.0"
    },
    "scene" : 0,
    "scenes" : [
        {
            "name" : "Scene",
            "nodes" : [
                0,
                1,
                2,
                3,
                4,
                5,
                6,
                7
            ]
        }
    ],
    "nodes" : [
        {
            "mesh" : 0,
            "name" : "_Ultrasonic_senso10000378_0"
        },
        {
            "mesh" : 1,
            "name" : "_Ultrasonic_senso10000379_0"
        },
        {
            "mesh" : 2,
            "name" : "_Ultrasonic_senso10000380_0"
        },
        {
            "mesh" : 3,
            "name" : "_Ultrasonic_senso10000381_0"
        },
        {
            "mesh" : 4,
            "name" : "_Ultrasonic_senso10000382_0"
        },
        {
            "mesh" : 5,
            "name" : "_Ultrasonic_senso10000383_0"
        },
        {
            "mesh" : 6,
            "name" : "_Ultrasonic_senso10000384_0"
        },
        {
            "name" : "Circle"
        }
    ],
    "materials" : [
        {
            "name" : "Nr10000378_0Mat42375",
            "pbrMetallicRoughness" : {
                "baseColorFactor" : [
                    0.0159962996840477,
                    0.01599629409611225,
                    0.0159962959587574,
                    1
                ],
                "metallicFactor" : 0,
                "roughnessFactor" : 0.5
            }
        },
        {
            "name" : "Nr10000378_0Col11779009",
            "pbrMetallicRoughness" : {
                "baseColorFactor" : [
                    0.7019609808921814,
                    0.7333329916000366,
                    0.756862998008728,
                    1
                ],
                "metallicFactor" : 0,
                "roughnessFactor" : 0
            }
        },
        {
            "doubleSided" : true,
            "name" : "Material.007",
            "pbrMetallicRoughness" : {
                "baseColorFactor" : [
                    0,
                    0.37626227736473083,
                    0.24228115379810333,
                    1
                ],
                "metallicFactor" : 0,
                "roughnessFactor" : 0.5
            }
        },
        {
            "name" : "Nr10000379_0Mat11779009",
            "pbrMetallicRoughness" : {
                "baseColorFactor" : [
                    0.7019609808921814,
                    0.7333329916000366,
                    0.756862998008728,
                    1
                ],
                "metallicFactor" : 0,
                "roughnessFactor" : 0
            }
        },
        {
            "name" : "Nr10000380_0Mat11779009",
            "pbrMetallicRoughness" : {
                "baseColorFactor" : [
                    0.7019609808921814,
                    0.7333329916000366,
                    0.756862998008728,
                    1
                ],
                "metallicFactor" : 0,
                "roughnessFactor" : 0
            }
        },
        {
            "name" : "Nr10000381_0Mat11779009",
            "pbrMetallicRoughness" : {
                "baseColorFactor" : [
                    0.7019609808921814,
                    0.7333329916000366,
                    0.756862998008728,
                    1
                ],
                "metallicFactor" : 0,
                "roughnessFactor" : 0
            }
        },
        {
            "name" : "Nr10000382_0Mat11779009",
            "pbrMetallicRoughness" : {
                "baseColorFactor" : [
                    0.7019609808921814,
                    0.7333329916000366,
                    0.756862998008728,
                    1
                ],
                "metallicFactor" : 0,
                "roughnessFactor" : 0
            }
        },
        {
            "name" : "Nr10000383_0Mat11779009",
            "pbrMetallicRoughness" : {
                "baseColorFactor" : [
                    0.0331047922372818,
                    0.033104777336120605,
                    0.0331047847867012,
                    1
                ],
                "metallicFactor" : 0
            }
        },
        {
            "name" : "Nr10000384_0Mat11779009",
            "pbrMetallicRoughness" : {
                "baseColorFactor" : [
                    0.7019609808921814,
                    0.7333329916000366,
                    0.756862998008728,
                    1
                ],
                "metallicFactor" : 0,
                "roughnessFactor" : 0
            }
        }
    ],
    "meshes" : [
        {
            "name" : "Mesh_0.004",
            "primitives" : [
                {
                    "attributes" : {
                        "POSITION" : 0,
                        "NORMAL" : 1
                    },
                    "indices" : 2,
                    "material" : 0
                },
                {
                    "attributes" : {
                        "POSITION" : 3,
                        "NORMAL" : 4
                    },
                    "indices" : 5,
                    "material" : 1
                },
                {
                    "attributes" : {
                        "POSITION" : 6,
                        "NORMAL" : 7
                    },
                    "indices" : 8,
                    "material" : 2
                }
            ]
        },
        {
            "name" : "Mesh_1.003",
            "primitives" : [
                {
                    "attributes" : {
                        "POSITION" : 9,
                        "NORMAL" : 10
                    },
                    "indices" : 11,
                    "material" : 3
                }
            ]
        },
        {
            "name" : "Mesh_2.003",
            "primitives" : [
                {
                    "attributes" : {
                        "POSITION" : 12,
                        "NORMAL" : 13
                    },
                    "indices" : 14,
                    "material" : 4
                }
            ]
        },
        {
            "name" : "Mesh_3",
            "primitives" : [
                {
                    "attributes" : {
                        "POSITION" : 15,
                        "NORMAL" : 16
                    },
                    "indices" : 17,
                    "material" : 5
                }
            ]
        },
        {
            "name" : "Mesh_4",
            "primitives" : [
                {
                    "attributes" : {
                        "POSITION" : 18,
                        "NORMAL" : 19
                    },
                    "indices" : 20,
                    "material" : 6
                }
            ]
        },
        {
            "name" : "Mesh_5",
            "primitives" : [
                {
                    "attributes" : {
                        "POSITION" : 21,
                        "NORMAL" : 22
                    },
                    "indices" : 23,
                    "material" : 7
                }
            ]
        },
        {
            "name" : "Mesh_6",
            "primitives" : [
                {
                    "attributes" : {
                        "POSITION" : 24,
                        "NORMAL" : 25
                    },
                    "indices" : 26,
                    "material" : 8
                }
            ]
        }
    ],
    "accessors" : [
        {
            "bufferView" : 0,
            "componentType" : 5126,
            "count" : 8906,
            "max" : [
                23,
                6,
                0
            ],
            "min" : [
                0,
                -14.498299598693848,
                -31
            ],
            "type" : "VEC3"
        },
        {
            "bufferView" : 1,
            "componentType" : 5126,
            "count" : 8906,
            "type" : "VEC3"
        },
        {
            "bufferView" : 2,
            "componentType" : 5123,
            "count" : 8970,
            "type" : "SCALAR"
        },
        {
            "bufferView" : 3,
            "componentType" : 5126,
            "count" : 8093,
            "max" : [
                15.949999809265137,
                5.050000190734863,
                9.100000381469727
            ],
            "min" : [
                4.050000190734863,
                -5.050000190734863,
                -1
            ],
            "type" : "VEC3"
        },
        {
            "bufferView" : 4,
            "componentType" : 5126,
            "count" : 8093,
            "type" : "VEC3"
        },
        {
            "bufferView" : 5,
            "componentType" : 5123,
            "count" : 8118,
            "type" : "SCALAR"
        },
        {
            "bufferView" : 6,
            "componentType" : 5126,
            "count" : 14713,
            "max" : [
                21.5,
                5.949999809265137,
                -1
            ],
            "min" : [
                1,
                -15.100000381469727,
                -29.700000762939453
            ],
            "type" : "VEC3"
        },
        {
            "bufferView" : 7,
            "componentType" : 5126,
            "count" : 14713,
            "type" : "VEC3"
        },
        {
            "bufferView" : 8,
            "componentType" : 5123,
            "count" : 16590,
            "type" : "SCALAR"
        },
        {
            "bufferView" : 9,
            "componentType" : 5126,
            "count" : 479,
            "max" : [
                10,
                -1.2000000476837158,
                8.699999809265137
            ],
            "min" : [
                9,
                -2.200000047683716,
                4.099999904632568
            ],
            "type" : "VEC3"
        },
        {
            "bufferView" : 10,
            "componentType" : 5126,
            "count" : 479,
            "type" : "VEC3"
        },
        {
            "bufferView" : 11,
            "componentType" : 5123,
            "count" : 480,
            "type" : "SCALAR"
        },
        {
            "bufferView" : 12,
            "componentType" : 5126,
            "count" : 480,
            "max" : [
                11.949999809265137,
                1.5750000476837158,
                8.699999809265137
            ],
            "min" : [
                10.949999809265137,
                0.574999988079071,
                4.099999904632568
            ],
            "type" : "VEC3"
        },
        {
            "bufferView" : 13,
            "componentType" : 5126,
            "count" : 480,
            "type" : "VEC3"
        },
        {
            "bufferView" : 14,
            "componentType" : 5123,
            "count" : 480,
            "type" : "SCALAR"
        },
        {
            "bufferView" : 15,
            "componentType" : 5126,
            "count" : 479,
            "max" : [
                10,
                2.200000047683716,
                8.699999809265137
            ],
            "min" : [
                9,
                1.2000000476837158,
                4.099999904632568
            ],
            "type" : "VEC3"
        },
        {
            "bufferView" : 16,
            "componentType" : 5126,
            "count" : 479,
            "type" : "VEC3"
        },
        {
            "bufferView" : 17,
            "componentType" : 5123,
            "count" : 480,
            "type" : "SCALAR"
        },
        {
            "bufferView" : 18,
            "componentType" : 5126,
            "count" : 479,
            "max" : [
                11.949999809265137,
                -0.574999988079071,
                8.699999809265137
            ],
            "min" : [
                10.949999809265137,
                -1.5750000476837158,
                4.099999904632568
            ],
            "type" : "VEC3"
        },
        {
            "bufferView" : 19,
            "componentType" : 5126,
            "count" : 479,
            "type" : "VEC3"
        },
        {
            "bufferView" : 20,
            "componentType" : 5123,
            "count" : 480,
            "type" : "SCALAR"
        },
        {
            "bufferView" : 21,
            "componentType" : 5126,
            "count" : 4090,
            "max" : [
                16.399999618530273,
                4.883709907531738,
                -27.5
            ],
            "min" : [
                6.199999809265137,
                -4.883709907531738,
                -31.199899673461914
            ],
            "type" : "VEC3"
        },
        {
            "bufferView" : 22,
            "componentType" : 5126,
            "count" : 4090,
            "type" : "VEC3"
        },
        {
            "bufferView" : 23,
            "componentType" : 5123,
            "count" : 4098,
            "type" : "SCALAR"
        },
        {
            "bufferView" : 24,
            "componentType" : 5126,
            "count" : 6896,
            "max" : [
                23.00040054321289,
                5.5,
                -25.698299407958984
            ],
            "min" : [
                17.698299407958984,
                -5.5,
                -31.00040054321289
            ],
            "type" : "VEC3"
        },
        {
            "bufferView" : 25,
            "componentType" : 5126,
            "count" : 6896,
            "type" : "VEC3"
        },
        {
            "bufferView" : 26,
            "componentType" : 5123,
            "count" : 6912,
            "type" : "SCALAR"
        }
    ],
    "bufferViews" : [
        {
            "buffer" : 0,
            "byteLength" : 106872,
            "byteOffset" : 0
        },
        {
            "buffer" : 0,
            "byteLength" : 106872,
            "byteOffset" : 106872
        },
        {
            "buffer" : 0,
            "byteLength" : 17940,
            "byteOffset" : 213744
        },
        {
            "buffer" : 0,
            "byteLength" : 97116,
            "byteOffset" : 231684
        },
        {
            "buffer" : 0,
            "byteLength" : 97116,
            "byteOffset" : 328800
        },
        {
            "buffer" : 0,
            "byteLength" : 16236,
            "byteOffset" : 425916
        },
        {
            "buffer" : 0,
            "byteLength" : 176556,
            "byteOffset" : 442152
        },
        {
            "buffer" : 0,
            "byteLength" : 176556,
            "byteOffset" : 618708
        },
        {
            "buffer" : 0,
            "byteLength" : 33180,
            "byteOffset" : 795264
        },
        {
            "buffer" : 0,
            "byteLength" : 5748,
            "byteOffset" : 828444
        },
        {
            "buffer" : 0,
            "byteLength" : 5748,
            "byteOffset" : 834192
        },
        {
            "buffer" : 0,
            "byteLength" : 960,
            "byteOffset" : 839940
        },
        {
            "buffer" : 0,
            "byteLength" : 5760,
            "byteOffset" : 840900
        },
        {
            "buffer" : 0,
            "byteLength" : 5760,
            "byteOffset" : 846660
        },
        {
            "buffer" : 0,
            "byteLength" : 960,
            "byteOffset" : 852420
        },
        {
            "buffer" : 0,
            "byteLength" : 5748,
            "byteOffset" : 853380
        },
        {
            "buffer" : 0,
            "byteLength" : 5748,
            "byteOffset" : 859128
        },
        {
            "buffer" : 0,
            "byteLength" : 960,
            "byteOffset" : 864876
        },
        {
            "buffer" : 0,
            "byteLength" : 5748,
            "byteOffset" : 865836
        },
        {
            "buffer" : 0,
            "byteLength" : 5748,
            "byteOffset" : 871584
        },
        {
            "buffer" : 0,
            "byteLength" : 960,
            "byteOffset" : 877332
        },
        {
            "buffer" : 0,
            "byteLength" : 49080,
            "byteOffset" : 878292
        },
        {
            "buffer" : 0,
            "byteLength" : 49080,
            "byteOffset" : 927372
        },
        {
            "buffer" : 0,
            "byteLength" : 8196,
            "byteOffset" : 976452
        },
        {
            "buffer" : 0,
            "byteLength" : 82752,
            "byteOffset" : 984648
        },
        {
            "buffer" : 0,
            "byteLength" : 82752,
            "byteOffset" : 1067400
        },
        {
            "buffer" : 0,
            "byteLength" : 13824,
            "byteOffset" : 1150152
        }
    ],
    "buffers" : [
        {
            "byteLength" : 1163976,
            "uri" : "data:application/octet-stream;base64,"
        }
    ]
}
