{"accessors" : [{"bufferView" : 0, "byteOffset" : 0, "componentType" : 5123, "count" : 23256, "type" : "SCALAR", "max" : [20573], "min" : [0]}, {"bufferView" : 1, "byteOffset" : 0, "componentType" : 5126, "count" : 20574, "type" : "VEC3", "max" : [23, 6, 0], "min" : [0, -15.100000381469727, -31], "name" : "POSITION"}, {"bufferView" : 1, "byteOffset" : 12, "componentType" : 5126, "count" : 20574, "type" : "VEC3", "max" : [1.0000044107437134, 1.0000044107437134, 1.0000044107437134], "min" : [-1.0000044107437134, -1.0000044107437134, -1.0000044107437134], "name" : "NORMAL"}, {"bufferView" : 0, "byteOffset" : 46512, "componentType" : 5123, "count" : 8118, "type" : "SCALAR", "max" : [7376], "min" : [0]}, {"bufferView" : 2, "byteOffset" : 0, "componentType" : 5126, "count" : 7377, "type" : "VEC3", "max" : [15.949999809265137, 5.050000190734863, 9.100000381469727], "min" : [4.050000190734863, -5.050000190734863, -1], "name" : "POSITION"}, {"bufferView" : 2, "byteOffset" : 12, "componentType" : 5126, "count" : 7377, "type" : "VEC3", "max" : [0.9980326294898987, 1.0000044107437134, 1.0000044107437134], "min" : [-0.9978702068328857, -1.0000044107437134, -1.0000044107437134], "name" : "NORMAL"}, {"bufferView" : 0, "byteOffset" : 62748, "componentType" : 5123, "count" : 480, "type" : "SCALAR", "max" : [414], "min" : [0]}, {"bufferView" : 3, "byteOffset" : 0, "componentType" : 5126, "count" : 415, "type" : "VEC3", "max" : [10, -1.2000000476837158, 8.699999809265137], "min" : [9, -2.200000047683716, 4.099999904632568], "name" : "POSITION"}, {"bufferView" : 3, "byteOffset" : 12, "componentType" : 5126, "count" : 415, "type" : "VEC3", "max" : [0.9978134036064148, 0.9978134036064148, 1.0000041723251343], "min" : [-0.9978134036064148, -0.9978134036064148, -1.0000044107437134], "name" : "NORMAL"}, {"bufferView" : 0, "byteOffset" : 63708, "componentType" : 5123, "count" : 480, "type" : "SCALAR", "max" : [414], "min" : [0]}, {"bufferView" : 4, "byteOffset" : 0, "componentType" : 5126, "count" : 415, "type" : "VEC3", "max" : [11.949999809265137, 1.5750000476837158, 8.699999809265137], "min" : [10.949999809265137, 0.574999988079071, 4.099999904632568], "name" : "POSITION"}, {"bufferView" : 4, "byteOffset" : 12, "componentType" : 5126, "count" : 415, "type" : "VEC3", "max" : [0.9978134036064148, 0.9978134036064148, 1.0000041723251343], "min" : [-0.9978134036064148, -0.9978134036064148, -1.0000044107437134], "name" : "NORMAL"}, {"bufferView" : 0, "byteOffset" : 64668, "componentType" : 5123, "count" : 480, "type" : "SCALAR", "max" : [414], "min" : [0]}, {"bufferView" : 5, "byteOffset" : 0, "componentType" : 5126, "count" : 415, "type" : "VEC3", "max" : [10, 2.200000047683716, 8.699999809265137], "min" : [9, 1.2000000476837158, 4.099999904632568], "name" : "POSITION"}, {"bufferView" : 5, "byteOffset" : 12, "componentType" : 5126, "count" : 415, "type" : "VEC3", "max" : [0.9978134036064148, 0.9978134036064148, 1.0000041723251343], "min" : [-0.9978134036064148, -0.9978134036064148, -1.0000044107437134], "name" : "NORMAL"}, {"bufferView" : 0, "byteOffset" : 65628, "componentType" : 5123, "count" : 480, "type" : "SCALAR", "max" : [414], "min" : [0]}, {"bufferView" : 6, "byteOffset" : 0, "componentType" : 5126, "count" : 415, "type" : "VEC3", "max" : [11.949999809265137, -0.574999988079071, 8.699999809265137], "min" : [10.949999809265137, -1.5750000476837158, 4.099999904632568], "name" : "POSITION"}, {"bufferView" : 6, "byteOffset" : 12, "componentType" : 5126, "count" : 415, "type" : "VEC3", "max" : [0.9978134036064148, 0.9978134036064148, 1.0000041723251343], "min" : [-0.9978134036064148, -0.9978134036064148, -1.0000044107437134], "name" : "NORMAL"}, {"bufferView" : 0, "byteOffset" : 66588, "componentType" : 5123, "count" : 4098, "type" : "SCALAR", "max" : [3566], "min" : [0]}, {"bufferView" : 7, "byteOffset" : 0, "componentType" : 5126, "count" : 3567, "type" : "VEC3", "max" : [16.399999618530273, 4.883709907531738, -27.5], "min" : [6.199999809265137, -4.883709907531738, -31.199899673461914], "name" : "POSITION"}, {"bufferView" : 7, "byteOffset" : 12, "componentType" : 5126, "count" : 3567, "type" : "VEC3", "max" : [0.9999607801437378, 1.0000044107437134, 1.0000044107437134], "min" : [-1.0000044107437134, -1.0000044107437134, -1.0000044107437134], "name" : "NORMAL"}, {"bufferView" : 0, "byteOffset" : 74784, "componentType" : 5123, "count" : 6912, "type" : "SCALAR", "max" : [6189], "min" : [0]}, {"bufferView" : 8, "byteOffset" : 0, "componentType" : 5126, "count" : 6190, "type" : "VEC3", "max" : [23.00040054321289, 5.5, -25.698299407958984], "min" : [17.698299407958984, -5.5, -31.00040054321289], "name" : "POSITION"}, {"bufferView" : 8, "byteOffset" : 12, "componentType" : 5126, "count" : 6190, "type" : "VEC3", "max" : [1.0000044107437134, 1.0000044107437134, 1.0000044107437134], "min" : [-1.0000044107437134, -1.0000044107437134, -1.0000044107437134], "name" : "NORMAL"}], "asset" : {"generator" : "Aspose.3D 22.5.1", "version" : "2.0"}, "buffers" : [{"uri" : "data:application/octet-stream;base64,", "byteLength" : 1151940}], "bufferViews" : [{"buffer" : 0, "byteOffset" : 0, "byteLength" : 88608, "target" : 34963}, {"buffer" : 0, "byteOffset" : 88612, "byteLength" : 558144, "byteStride" : 24, "target" : 34962}, {"buffer" : 0, "byteOffset" : 646760, "byteLength" : 194832, "byteStride" : 24, "target" : 34962}, {"buffer" : 0, "byteOffset" : 841596, "byteLength" : 11520, "byteStride" : 24, "target" : 34962}, {"buffer" : 0, "byteOffset" : 853120, "byteLength" : 11520, "byteStride" : 24, "target" : 34962}, {"buffer" : 0, "byteOffset" : 864644, "byteLength" : 11520, "byteStride" : 24, "target" : 34962}, {"buffer" : 0, "byteOffset" : 876168, "byteLength" : 11520, "byteStride" : 24, "target" : 34962}, {"buffer" : 0, "byteOffset" : 887692, "byteLength" : 98352, "byteStride" : 24, "target" : 34962}, {"buffer" : 0, "byteOffset" : 986048, "byteLength" : 165888, "byteStride" : 24, "target" : 34962}], "materials" : [{"name" : "Nr10000378_0Mat42375", "pbrMetallicRoughness" : {"baseColorFactor" : [0, 0.647059, 0.529412, 1], "metallicFactor" : 0, "roughnessFactor" : 0}, "emissiveFactor" : [0, 0, 0], "alphaMode" : "OPAQUE", "doubleSided" : false}, {"name" : "Nr10000378_0Col11779009", "pbrMetallicRoughness" : {"baseColorFactor" : [0.701961, 0.733333, 0.756863, 1], "metallicFactor" : 0, "roughnessFactor" : 0}, "emissiveFactor" : [0, 0, 0], "alphaMode" : "OPAQUE", "doubleSided" : false}, {"name" : "Nr10000379_0Mat11779009", "pbrMetallicRoughness" : {"baseColorFactor" : [0.701961, 0.733333, 0.756863, 1], "metallicFactor" : 0, "roughnessFactor" : 0}, "emissiveFactor" : [0, 0, 0], "alphaMode" : "OPAQUE", "doubleSided" : false}, {"name" : "Nr10000380_0Mat11779009", "pbrMetallicRoughness" : {"baseColorFactor" : [0.701961, 0.733333, 0.756863, 1], "metallicFactor" : 0, "roughnessFactor" : 0}, "emissiveFactor" : [0, 0, 0], "alphaMode" : "OPAQUE", "doubleSided" : false}, {"name" : "Nr10000381_0Mat11779009", "pbrMetallicRoughness" : {"baseColorFactor" : [0.701961, 0.733333, 0.756863, 1], "metallicFactor" : 0, "roughnessFactor" : 0}, "emissiveFactor" : [0, 0, 0], "alphaMode" : "OPAQUE", "doubleSided" : false}, {"name" : "Nr10000382_0Mat11779009", "pbrMetallicRoughness" : {"baseColorFactor" : [0.701961, 0.733333, 0.756863, 1], "metallicFactor" : 0, "roughnessFactor" : 0}, "emissiveFactor" : [0, 0, 0], "alphaMode" : "OPAQUE", "doubleSided" : false}, {"name" : "Nr10000383_0Mat11779009", "pbrMetallicRoughness" : {"baseColorFactor" : [0.701961, 0.733333, 0.756863, 1], "metallicFactor" : 0, "roughnessFactor" : 0}, "emissiveFactor" : [0, 0, 0], "alphaMode" : "OPAQUE", "doubleSided" : false}, {"name" : "Nr10000384_0Mat11779009", "pbrMetallicRoughness" : {"baseColorFactor" : [0.701961, 0.733333, 0.756863, 1], "metallicFactor" : 0, "roughnessFactor" : 0}, "emissiveFactor" : [0, 0, 0], "alphaMode" : "OPAQUE", "doubleSided" : false}], "meshes" : [{"primitives" : [{"attributes" : {"POSITION" : 1, "NORMAL" : 2}, "indices" : 0, "material" : 0, "mode" : 4}, {"attributes" : {"POSITION" : 4, "NORMAL" : 5}, "indices" : 3, "material" : 1, "mode" : 4}], "name" : ""}, {"primitives" : [{"attributes" : {"POSITION" : 7, "NORMAL" : 8}, "indices" : 6, "material" : 2, "mode" : 4}], "name" : ""}, {"primitives" : [{"attributes" : {"POSITION" : 10, "NORMAL" : 11}, "indices" : 9, "material" : 3, "mode" : 4}], "name" : ""}, {"primitives" : [{"attributes" : {"POSITION" : 13, "NORMAL" : 14}, "indices" : 12, "material" : 4, "mode" : 4}], "name" : ""}, {"primitives" : [{"attributes" : {"POSITION" : 16, "NORMAL" : 17}, "indices" : 15, "material" : 5, "mode" : 4}], "name" : ""}, {"primitives" : [{"attributes" : {"POSITION" : 19, "NORMAL" : 20}, "indices" : 18, "material" : 6, "mode" : 4}], "name" : ""}, {"primitives" : [{"attributes" : {"POSITION" : 22, "NORMAL" : 23}, "indices" : 21, "material" : 7, "mode" : 4}], "name" : ""}], "nodes" : [{"mesh" : 0, "name" : "_Ultrasonic_senso10000378_0"}, {"mesh" : 1, "name" : "_Ultrasonic_senso10000379_0"}, {"mesh" : 2, "name" : "_Ultrasonic_senso10000380_0"}, {"mesh" : 3, "name" : "_Ultrasonic_senso10000381_0"}, {"mesh" : 4, "name" : "_Ultrasonic_senso10000382_0"}, {"mesh" : 5, "name" : "_Ultrasonic_senso10000383_0"}, {"mesh" : 6, "name" : "_Ultrasonic_senso10000384_0"}], "scene" : 0, "scenes" : [{"nodes" : [0, 1, 2, 3, 4, 5, 6]}]}