{
    "asset" : {
        "generator" : "Khronos glTF Blender I/O v1.6.16",
        "version" : "2.0"
    },
    "scene" : 0,
    "scenes" : [
        {
            "name" : "Scene",
            "nodes" : [
                0,
                1,
                2
            ]
        }
    ],
    "nodes" : [
        {
            "name" : "Light",
            "rotation" : [
                0.16907575726509094,
                0.7558803558349609,
                -0.27217137813568115,
                0.570947527885437
            ],
            "translation" : [
                4.076245307922363,
                5.903861999511719,
                -1.0054539442062378
            ]
        },
        {
            "name" : "Camera",
            "rotation" : [
                0.483536034822464,
                0.33687159419059753,
                -0.20870360732078552,
                0.7804827094078064
            ],
            "translation" : [
                7.358891487121582,
                4.958309173583984,
                6.925790786743164
            ]
        },
        {
            "mesh" : 0,
            "name" : "_Field-attachable10002845_0",
            "rotation" : [
                0.7071068286895752,
                0,
                0,
                0.7071067094802856
            ],
            "scale" : [
                0.0010000000474974513,
                0.0010000000474974513,
                0.0010000000474974513
            ]
        }
    ],
    "materials" : [
        {
            "doubleSided" : true,
            "name" : "Nr10002845_0Mat42375",
            "pbrMetallicRoughness" : {
                "baseColorFactor" : [
                    0.3185468912124634,
                    0.318546861410141,
                    0.318546861410141,
                    1
                ],
                "metallicFactor" : 0,
                "roughnessFactor" : 0.5
            }
        },
        {
            "doubleSided" : true,
            "name" : "Material.001",
            "pbrMetallicRoughness" : {
                "baseColorFactor" : [
                    0.0159962996840477,
                    0.01599629409611225,
                    0.0159962959587574,
                    1
                ],
                "metallicFactor" : 0,
                "roughnessFactor" : 0.5
            }
        }
    ],
    "meshes" : [
        {
            "name" : "_Field-attachable",
            "primitives" : [
                {
                    "attributes" : {
                        "POSITION" : 0,
                        "NORMAL" : 1
                    },
                    "indices" : 2,
                    "material" : 0
                },
                {
                    "attributes" : {
                        "POSITION" : 3,
                        "NORMAL" : 4
                    },
                    "indices" : 5,
                    "material" : 1
                }
            ]
        }
    ],
    "accessors" : [
        {
            "bufferView" : 0,
            "componentType" : 5126,
            "count" : 4497,
            "max" : [
                32.844600677490234,
                9.82172966003418,
                10.15839958190918
            ],
            "min" : [
                -16.600000381469727,
                -10.367000579833984,
                -10.027899742126465
            ],
            "type" : "VEC3"
        },
        {
            "bufferView" : 1,
            "componentType" : 5126,
            "count" : 4497,
            "type" : "VEC3"
        },
        {
            "bufferView" : 2,
            "componentType" : 5123,
            "count" : 13593,
            "type" : "SCALAR"
        },
        {
            "bufferView" : 3,
            "componentType" : 5126,
            "count" : 2344,
            "max" : [
                43.79999923706055,
                9.524809837341309,
                9.862689971923828
            ],
            "min" : [
                -1.2000000476837158,
                -10.070099830627441,
                -9.732219696044922
            ],
            "type" : "VEC3"
        },
        {
            "bufferView" : 4,
            "componentType" : 5126,
            "count" : 2344,
            "type" : "VEC3"
        },
        {
            "bufferView" : 5,
            "componentType" : 5123,
            "count" : 6063,
            "type" : "SCALAR"
        }
    ],
    "bufferViews" : [
        {
            "buffer" : 0,
            "byteLength" : 53964,
            "byteOffset" : 0
        },
        {
            "buffer" : 0,
            "byteLength" : 53964,
            "byteOffset" : 53964
        },
        {
            "buffer" : 0,
            "byteLength" : 27186,
            "byteOffset" : 107928
        },
        {
            "buffer" : 0,
            "byteLength" : 28128,
            "byteOffset" : 135116
        },
        {
            "buffer" : 0,
            "byteLength" : 28128,
            "byteOffset" : 163244
        },
        {
            "buffer" : 0,
            "byteLength" : 12126,
            "byteOffset" : 191372
        }
    ],
    "buffers" : [
        {
            "byteLength" : 203500,
            "uri" : "data:application/octet-stream;base64,"
        }
    ]
}
