{
    "asset": {
        "version": "1.0",
        "generator": "Open Asset Import Library (assimp v4.1.0)"
    },
    "accessors": {
        "mesh_accessor": {
            "bufferView": "mesh_view",
            "byteOffset": 0,
            "byteStride": 0,
            "componentType": 5126,
            "count": 65535,
            "type": "VEC3",
            "max": [
                0.187992125749588,
                1.8779528141021729,
                0.187992125749588
            ],
            "min": [
                -0.187992125749588,
                1.421259880065918,
                -0.187992125749588
            ]
        },
        "mesh_accessor_0": {
            "bufferView": "mesh_view_0",
            "byteOffset": 0,
            "byteStride": 0,
            "componentType": 5126,
            "count": 65535,
            "type": "VEC3",
            "max": [
                0.9999999403953552,
                1.0,
                1.0
            ],
            "min": [
                -1.0,
                -1.0,
                -1.0
            ]
        },
        "mesh_accessor_1": {
            "bufferView": "mesh_view_1",
            "byteOffset": 0,
            "byteStride": 0,
            "componentType": 5123,
            "count": 65535,
            "type": "SCALAR",
            "max": [
                65534.0
            ],
            "min": [
                0.0
            ]
        },
        "mesh_0_accessor": {
            "bufferView": "mesh_0_view",
            "byteOffset": 0,
            "byteStride": 0,
            "componentType": 5126,
            "count": 65535,
            "type": "VEC3",
            "max": [
                0.4724409580230713,
                1.7773127555847169,
                0.5314960479736328
            ],
            "min": [
                -0.4724409580230713,
                -0.6673228144645691,
                -0.5314960479736328
            ]
        },
        "mesh_0_accessor_0": {
            "bufferView": "mesh_0_view_0",
            "byteOffset": 0,
            "byteStride": 0,
            "componentType": 5126,
            "count": 65535,
            "type": "VEC3",
            "max": [
                1.0,
                1.0,
                1.0
            ],
            "min": [
                -1.0,
                -1.0,
                -1.0
            ]
        },
        "mesh_0_accessor_1": {
            "bufferView": "mesh_0_view_1",
            "byteOffset": 0,
            "byteStride": 0,
            "componentType": 5123,
            "count": 65535,
            "type": "SCALAR",
            "max": [
                65534.0
            ],
            "min": [
                0.0
            ]
        },
        "mesh_1_accessor": {
            "bufferView": "mesh_1_view",
            "byteOffset": 0,
            "byteStride": 0,
            "componentType": 5126,
            "count": 34770,
            "type": "VEC3",
            "max": [
                0.14349505305290223,
                -0.6437007784843445,
                0.14370039105415345
            ],
            "min": [
                -0.1436798870563507,
                -0.7284877896308899,
                -0.14370039105415345
            ]
        },
        "mesh_1_accessor_0": {
            "bufferView": "mesh_1_view_0",
            "byteOffset": 0,
            "byteStride": 0,
            "componentType": 5126,
            "count": 34770,
            "type": "VEC3",
            "max": [
                0.9999842047691345,
                0.0,
                0.999936580657959
            ],
            "min": [
                -0.9999842047691345,
                -0.9999959468841553,
                -0.999936580657959
            ]
        },
        "mesh_1_accessor_1": {
            "bufferView": "mesh_1_view_1",
            "byteOffset": 0,
            "byteStride": 0,
            "componentType": 5123,
            "count": 34770,
            "type": "SCALAR",
            "max": [
                34769.0
            ],
            "min": [
                0.0
            ]
        },
        "mesh_2_accessor": {
            "bufferView": "mesh_2_view",
            "byteOffset": 0,
            "byteStride": 0,
            "componentType": 5126,
            "count": 65535,
            "type": "VEC3",
            "max": [
                0.15748031437397004,
                -0.6437016129493713,
                0.15748031437397004
            ],
            "min": [
                -0.15748031437397004,
                -0.9459339380264282,
                -0.15748031437397004
            ]
        },
        "mesh_2_accessor_0": {
            "bufferView": "mesh_2_view_0",
            "byteOffset": 0,
            "byteStride": 0,
            "componentType": 5126,
            "count": 65535,
            "type": "VEC3",
            "max": [
                0.9999975562095642,
                0.8660525679588318,
                0.9999999403953552
            ],
            "min": [
                -0.9999992251396179,
                -0.9998037815093994,
                -1.0
            ]
        },
        "mesh_2_accessor_1": {
            "bufferView": "mesh_2_view_1",
            "byteOffset": 0,
            "byteStride": 0,
            "componentType": 5123,
            "count": 65535,
            "type": "SCALAR",
            "max": [
                65534.0
            ],
            "min": [
                0.0
            ]
        },
        "mesh_3_accessor": {
            "bufferView": "mesh_3_view",
            "byteOffset": 0,
            "byteStride": 0,
            "componentType": 5126,
            "count": 65535,
            "type": "VEC3",
            "max": [
                0.4685039222240448,
                1.3523621559143067,
                0.4685039222240448
            ],
            "min": [
                -0.4724409580230713,
                -0.9586614370346069,
                -0.4685039222240448
            ]
        },
        "mesh_3_accessor_0": {
            "bufferView": "mesh_3_view_0",
            "byteOffset": 0,
            "byteStride": 0,
            "componentType": 5126,
            "count": 65535,
            "type": "VEC3",
            "max": [
                1.0,
                1.0,
                1.0
            ],
            "min": [
                -1.0,
                -1.0,
                -0.9999808669090271
            ]
        },
        "mesh_3_accessor_1": {
            "bufferView": "mesh_3_view_1",
            "byteOffset": 0,
            "byteStride": 0,
            "componentType": 5123,
            "count": 65535,
            "type": "SCALAR",
            "max": [
                65534.0
            ],
            "min": [
                0.0
            ]
        },
        "mesh_4_accessor": {
            "bufferView": "mesh_4_view",
            "byteOffset": 0,
            "byteStride": 0,
            "componentType": 5126,
            "count": 34770,
            "type": "VEC3",
            "max": [
                0.4330090880393982,
                1.8562991619110108,
                0.4330708682537079
            ],
            "min": [
                -0.4330090880393982,
                0.3168841004371643,
                -0.4330708682537079
            ]
        },
        "mesh_4_accessor_0": {
            "bufferView": "mesh_4_view_0",
            "byteOffset": 0,
            "byteStride": 0,
            "componentType": 5126,
            "count": 34770,
            "type": "VEC3",
            "max": [
                1.0,
                1.0,
                1.0
            ],
            "min": [
                -1.0,
                -1.0,
                -0.999966561794281
            ]
        },
        "mesh_4_accessor_1": {
            "bufferView": "mesh_4_view_1",
            "byteOffset": 0,
            "byteStride": 0,
            "componentType": 5123,
            "count": 34770,
            "type": "SCALAR",
            "max": [
                34769.0
            ],
            "min": [
                0.0
            ]
        },
        "mesh_5_accessor": {
            "bufferView": "mesh_5_view",
            "byteOffset": 0,
            "byteStride": 0,
            "componentType": 5126,
            "count": 65535,
            "type": "VEC3",
            "max": [
                0.23393701016902924,
                1.8562991619110108,
                0.23393701016902924
            ],
            "min": [
                -0.23393701016902924,
                0.19291338324546815,
                -0.4330708682537079
            ]
        },
        "mesh_5_accessor_0": {
            "bufferView": "mesh_5_view_0",
            "byteOffset": 0,
            "byteStride": 0,
            "componentType": 5126,
            "count": 65535,
            "type": "VEC3",
            "max": [
                1.0,
                1.0,
                0.9999999403953552
            ],
            "min": [
                -1.0,
                -1.0,
                -1.0
            ]
        },
        "mesh_5_accessor_1": {
            "bufferView": "mesh_5_view_1",
            "byteOffset": 0,
            "byteStride": 0,
            "componentType": 5123,
            "count": 65535,
            "type": "SCALAR",
            "max": [
                65534.0
            ],
            "min": [
                0.0
            ]
        },
        "mesh_6_accessor": {
            "bufferView": "mesh_6_view",
            "byteOffset": 0,
            "byteStride": 0,
            "componentType": 5126,
            "count": 65535,
            "type": "VEC3",
            "max": [
                0.21453632414340974,
                1.8956692218780518,
                0.2145669311285019
            ],
            "min": [
                -0.21453632414340974,
                0.29086220264434817,
                -0.374015748500824
            ]
        },
        "mesh_6_accessor_0": {
            "bufferView": "mesh_6_view_0",
            "byteOffset": 0,
            "byteStride": 0,
            "componentType": 5126,
            "count": 65535,
            "type": "VEC3",
            "max": [
                1.0,
                1.0,
                0.9999578595161438
            ],
            "min": [
                -1.0,
                -1.0,
                -1.0
            ]
        },
        "mesh_6_accessor_1": {
            "bufferView": "mesh_6_view_1",
            "byteOffset": 0,
            "byteStride": 0,
            "componentType": 5123,
            "count": 65535,
            "type": "SCALAR",
            "max": [
                65534.0
            ],
            "min": [
                0.0
            ]
        },
        "mesh_7_accessor": {
            "bufferView": "mesh_7_view",
            "byteOffset": 0,
            "byteStride": 0,
            "componentType": 5126,
            "count": 34770,
            "type": "VEC3",
            "max": [
                0.16044121980667115,
                1.8779528141021729,
                0.160041943192482
            ],
            "min": [
                -0.16486220061779023,
                1.5511810779571534,
                -0.16330057382583619
            ]
        },
        "mesh_7_accessor_0": {
            "bufferView": "mesh_7_view_0",
            "byteOffset": 0,
            "byteStride": 0,
            "componentType": 5126,
            "count": 34770,
            "type": "VEC3",
            "max": [
                1.0,
                1.0,
                1.0
            ],
            "min": [
                -1.0,
                0.0,
                -1.0
            ]
        },
        "mesh_7_accessor_1": {
            "bufferView": "mesh_7_view_1",
            "byteOffset": 0,
            "byteStride": 0,
            "componentType": 5123,
            "count": 34770,
            "type": "SCALAR",
            "max": [
                34769.0
            ],
            "min": [
                0.0
            ]
        }
    },
    "buffers": {
        "../../download/c8dwu2aqc1zw/c8dwu2aqc1zw": {
            "byteLength": 12935532,
            "type": "arraybuffer",
            "uri": "../../download/c8dwu2aqc1zw/c8dwu2aqc1zw.bin"
        }
    },
    "bufferViews": {
        "mesh_view": {
            "buffer": "../../download/c8dwu2aqc1zw/c8dwu2aqc1zw",
            "byteOffset": 0,
            "byteLength": 786420,
            "target": 34962
        },
        "mesh_view_0": {
            "buffer": "../../download/c8dwu2aqc1zw/c8dwu2aqc1zw",
            "byteOffset": 786420,
            "byteLength": 786420,
            "target": 34962
        },
        "mesh_view_1": {
            "buffer": "../../download/c8dwu2aqc1zw/c8dwu2aqc1zw",
            "byteOffset": 1572840,
            "byteLength": 131070,
            "target": 34963
        },
        "mesh_0_view": {
            "buffer": "../../download/c8dwu2aqc1zw/c8dwu2aqc1zw",
            "byteOffset": 1703912,
            "byteLength": 786420,
            "target": 34962
        },
        "mesh_0_view_0": {
            "buffer": "../../download/c8dwu2aqc1zw/c8dwu2aqc1zw",
            "byteOffset": 2490332,
            "byteLength": 786420,
            "target": 34962
        },
        "mesh_0_view_1": {
            "buffer": "../../download/c8dwu2aqc1zw/c8dwu2aqc1zw",
            "byteOffset": 3276752,
            "byteLength": 131070,
            "target": 34963
        },
        "mesh_1_view": {
            "buffer": "../../download/c8dwu2aqc1zw/c8dwu2aqc1zw",
            "byteOffset": 3407824,
            "byteLength": 417240,
            "target": 34962
        },
        "mesh_1_view_0": {
            "buffer": "../../download/c8dwu2aqc1zw/c8dwu2aqc1zw",
            "byteOffset": 3825064,
            "byteLength": 417240,
            "target": 34962
        },
        "mesh_1_view_1": {
            "buffer": "../../download/c8dwu2aqc1zw/c8dwu2aqc1zw",
            "byteOffset": 4242304,
            "byteLength": 69540,
            "target": 34963
        },
        "mesh_2_view": {
            "buffer": "../../download/c8dwu2aqc1zw/c8dwu2aqc1zw",
            "byteOffset": 4311844,
            "byteLength": 786420,
            "target": 34962
        },
        "mesh_2_view_0": {
            "buffer": "../../download/c8dwu2aqc1zw/c8dwu2aqc1zw",
            "byteOffset": 5098264,
            "byteLength": 786420,
            "target": 34962
        },
        "mesh_2_view_1": {
            "buffer": "../../download/c8dwu2aqc1zw/c8dwu2aqc1zw",
            "byteOffset": 5884684,
            "byteLength": 131070,
            "target": 34963
        },
        "mesh_3_view": {
            "buffer": "../../download/c8dwu2aqc1zw/c8dwu2aqc1zw",
            "byteOffset": 6015756,
            "byteLength": 786420,
            "target": 34962
        },
        "mesh_3_view_0": {
            "buffer": "../../download/c8dwu2aqc1zw/c8dwu2aqc1zw",
            "byteOffset": 6802176,
            "byteLength": 786420,
            "target": 34962
        },
        "mesh_3_view_1": {
            "buffer": "../../download/c8dwu2aqc1zw/c8dwu2aqc1zw",
            "byteOffset": 7588596,
            "byteLength": 131070,
            "target": 34963
        },
        "mesh_4_view": {
            "buffer": "../../download/c8dwu2aqc1zw/c8dwu2aqc1zw",
            "byteOffset": 7719668,
            "byteLength": 417240,
            "target": 34962
        },
        "mesh_4_view_0": {
            "buffer": "../../download/c8dwu2aqc1zw/c8dwu2aqc1zw",
            "byteOffset": 8136908,
            "byteLength": 417240,
            "target": 34962
        },
        "mesh_4_view_1": {
            "buffer": "../../download/c8dwu2aqc1zw/c8dwu2aqc1zw",
            "byteOffset": 8554148,
            "byteLength": 69540,
            "target": 34963
        },
        "mesh_5_view": {
            "buffer": "../../download/c8dwu2aqc1zw/c8dwu2aqc1zw",
            "byteOffset": 8623688,
            "byteLength": 786420,
            "target": 34962
        },
        "mesh_5_view_0": {
            "buffer": "../../download/c8dwu2aqc1zw/c8dwu2aqc1zw",
            "byteOffset": 9410108,
            "byteLength": 786420,
            "target": 34962
        },
        "mesh_5_view_1": {
            "buffer": "../../download/c8dwu2aqc1zw/c8dwu2aqc1zw",
            "byteOffset": 10196528,
            "byteLength": 131070,
            "target": 34963
        },
        "mesh_6_view": {
            "buffer": "../../download/c8dwu2aqc1zw/c8dwu2aqc1zw",
            "byteOffset": 10327600,
            "byteLength": 786420,
            "target": 34962
        },
        "mesh_6_view_0": {
            "buffer": "../../download/c8dwu2aqc1zw/c8dwu2aqc1zw",
            "byteOffset": 11114020,
            "byteLength": 786420,
            "target": 34962
        },
        "mesh_6_view_1": {
            "buffer": "../../download/c8dwu2aqc1zw/c8dwu2aqc1zw",
            "byteOffset": 11900440,
            "byteLength": 131070,
            "target": 34963
        },
        "mesh_7_view": {
            "buffer": "../../download/c8dwu2aqc1zw/c8dwu2aqc1zw",
            "byteOffset": 12031512,
            "byteLength": 417240,
            "target": 34962
        },
        "mesh_7_view_0": {
            "buffer": "../../download/c8dwu2aqc1zw/c8dwu2aqc1zw",
            "byteOffset": 12448752,
            "byteLength": 417240,
            "target": 34962
        },
        "mesh_7_view_1": {
            "buffer": "../../download/c8dwu2aqc1zw/c8dwu2aqc1zw",
            "byteOffset": 12865992,
            "byteLength": 69540,
            "target": 34963
        }
    },
    "materials": {
        "DefaultMaterial": {
            "values": {
                "ambient": [
                    1.0,
                    1.0,
                    1.0,
                    1.0
                ],
                "diffuse": [
                    1.0,
                    1.0,
                    1.0,
                    1.0
                ],
                "specular": [
                    1.0,
                    1.0,
                    1.0,
                    1.0
                ],
                "emission": [
                    0.0,
                    0.0,
                    0.0,
                    1.0
                ],
                "shininess": 0.0
            }
        }
    },
    "meshes": {
        "mesh": {
            "name": "",
            "primitives": [
                {
                    "mode": 4,
                    "material": "DefaultMaterial",
                    "indices": "mesh_accessor_1",
                    "attributes": {
                        "POSITION": "mesh_accessor",
                        "NORMAL": "mesh_accessor_0"
                    }
                }
            ]
        },
        "mesh_0": {
            "name": "",
            "primitives": [
                {
                    "mode": 4,
                    "material": "DefaultMaterial",
                    "indices": "mesh_0_accessor_1",
                    "attributes": {
                        "POSITION": "mesh_0_accessor",
                        "NORMAL": "mesh_0_accessor_0"
                    }
                }
            ]
        },
        "mesh_1": {
            "name": "",
            "primitives": [
                {
                    "mode": 4,
                    "material": "DefaultMaterial",
                    "indices": "mesh_1_accessor_1",
                    "attributes": {
                        "POSITION": "mesh_1_accessor",
                        "NORMAL": "mesh_1_accessor_0"
                    }
                }
            ]
        },
        "mesh_2": {
            "name": "",
            "primitives": [
                {
                    "mode": 4,
                    "material": "DefaultMaterial",
                    "indices": "mesh_2_accessor_1",
                    "attributes": {
                        "POSITION": "mesh_2_accessor",
                        "NORMAL": "mesh_2_accessor_0"
                    }
                }
            ]
        },
        "mesh_3": {
            "name": "",
            "primitives": [
                {
                    "mode": 4,
                    "material": "DefaultMaterial",
                    "indices": "mesh_3_accessor_1",
                    "attributes": {
                        "POSITION": "mesh_3_accessor",
                        "NORMAL": "mesh_3_accessor_0"
                    }
                }
            ]
        },
        "mesh_4": {
            "name": "",
            "primitives": [
                {
                    "mode": 4,
                    "material": "DefaultMaterial",
                    "indices": "mesh_4_accessor_1",
                    "attributes": {
                        "POSITION": "mesh_4_accessor",
                        "NORMAL": "mesh_4_accessor_0"
                    }
                }
            ]
        },
        "mesh_5": {
            "name": "",
            "primitives": [
                {
                    "mode": 4,
                    "material": "DefaultMaterial",
                    "indices": "mesh_5_accessor_1",
                    "attributes": {
                        "POSITION": "mesh_5_accessor",
                        "NORMAL": "mesh_5_accessor_0"
                    }
                }
            ]
        },
        "mesh_6": {
            "name": "",
            "primitives": [
                {
                    "mode": 4,
                    "material": "DefaultMaterial",
                    "indices": "mesh_6_accessor_1",
                    "attributes": {
                        "POSITION": "mesh_6_accessor",
                        "NORMAL": "mesh_6_accessor_0"
                    }
                }
            ]
        },
        "mesh_7": {
            "name": "",
            "primitives": [
                {
                    "mode": 4,
                    "material": "DefaultMaterial",
                    "indices": "mesh_7_accessor_1",
                    "attributes": {
                        "POSITION": "mesh_7_accessor",
                        "NORMAL": "mesh_7_accessor_0"
                    }
                }
            ]
        }
    },
    "nodes": {
        "node": {
            "children": [
                "AssimpScene"
            ]
        },
        "AssimpScene": {
            "meshes": [
                "mesh",
                "mesh_0",
                "mesh_1",
                "mesh_2",
                "mesh_3",
                "mesh_4",
                "mesh_5",
                "mesh_6",
                "mesh_7"
            ]
        }
    },
    "scenes": {
        "defaultScene": {
            "nodes": [
                "node"
            ]
        }
    },
    "scene": "defaultScene"
}